<svg xmlns="http://www.w3.org/2000/svg" viewBox="0 0 888 1000"><defs><clipPath id="a"><path d="M0 0h888v1000H0z"/></clipPath></defs><g clip-path="url(#a)"><path d="M225 681V282a39 39 0 0 1 39-39h360a39 39 0 0 1 39 39v399L444 788z" fill="#329969"/><g transform="translate(225.347 213)"><g fill="#58ffb2"><path d="m218.653 519.958-196.5-96.006V39c0-9.099 7.402-16.5 16.5-16.5h360c9.099 0 16.5 7.401 16.5 16.5V423.95l-196.5 96.007z"/><path d="m218.653 494.917 174-85.014V44.999h-348v364.904l174 85.014m0 50.083-219-107V39c0-21.54 17.46-39 39-39h360c21.54 0 39 17.46 39 39v399l-219 107z" fill="#45cd8e"/></g><rect width="291" height="56" rx="2" transform="translate(73.653 337)" fill="#292c32"/><rect width="192" height="158" rx="33" transform="translate(123.653 72)" fill="#292c32"/><text transform="translate(219.653 378)" fill="#58ffb2" font-size="41" font-family="Bahnschrift" font-weight="700"><tspan x="-84.202" y="0">~</tspan><tspan y="0" text-decoration="underline">UI/ART</tspan><tspan y="0">~</tspan></text><text transform="translate(219.653 323)" fill="#292c32" font-size="43" font-family="Bahnschrift" font-weight="600"><tspan x="-27.137" y="0">My</tspan><tspan x="-49.519" y="111">Work</tspan></text><path d="M104.981 267.28h230.328" fill="none" stroke="#292c32" stroke-linecap="round" stroke-width="15"/><g transform="rotate(30 -20.866 396.021)"><g data-name="Path 384" fill="none"><path d="M18.974 82.128c-4.217-27.021 17.08-48.536 31.205-57.183s52.16-9.99 52.527 13.65S83.816 55.19 84.13 73.15s4.958 30.891-13.276 43.104-47.66-7.104-51.88-34.127z"/><path d="M28.564 45.38c-7.046 10.054-11.79 22.652-9.59 36.749 4.218 27.02 33.64 46.344 51.877 34.128 4.298-2.878 7.324-5.796 9.437-8.81 6.852-9.777 4.082-20.569 3.842-34.296-.072-4.12.885-6.924 2.4-9.085 3.232-4.612 9-6.292 12.705-11.578 2.125-3.032 3.572-7.253 3.47-13.893-.366-23.64-38.403-22.296-52.527-13.649-6.756 4.136-15.153 11.216-21.614 20.434m-8.19-5.74c6.378-9.1 15.338-17.564 24.582-23.224 12.682-7.763 37.63-10.46 53.156-1.919 9.25 5.09 14.432 13.593 14.592 23.943.125 8.07-1.602 14.542-5.279 19.788-2.893 4.129-6.35 6.607-9.128 8.599-1.54 1.104-2.994 2.147-3.577 2.979-.156.222-.63.899-.59 3.17.05 2.878.22 5.621.38 8.248.646 10.561 1.313 21.483-6.032 31.963-2.935 4.187-6.88 7.91-12.061 11.38-9.759 6.536-22.413 7.194-34.717 1.803-16.916-7.41-29.714-24.17-32.607-42.7C6.76 68.726 10.661 53.5 20.374 39.64z" fill="#58ffb2"/></g><circle data-name="Ellipse 13" cx="11.412" cy="11.412" r="11.412" transform="rotate(-54.97 119.984 10.616)" fill="none" stroke="#58ffb2" stroke-width="5"/><path data-name="Union 54" d="M29.856 81.327a8.558 8.558 0 1 1 4.514 2.454 8.56 8.56 0 0 1-4.514-2.454zm4.387-20.102a8.557 8.557 0 1 1 4.514 2.456 8.559 8.559 0 0 1-4.515-2.452zm15.05-14.533a8.558 8.558 0 1 1 4.514 2.455 8.558 8.558 0 0 1-4.515-2.448zM69.58 40.32a8.557 8.557 0 1 1 4.514 2.456 8.56 8.56 0 0 1-4.515-2.45z" fill="#58ffb2"/></g></g></g></svg>