<svg xmlns="http://www.w3.org/2000/svg" viewBox="220 210 447 580"><defs><clipPath id="a"><path d="M0 0h888v1000H0z"/></clipPath></defs><g clip-path="url(#a)"><path d="M225 681V282a39 39 0 0 1 39-39h360a39 39 0 0 1 39 39v399L444 788z" fill="#346b9a"/><g transform="translate(224.674 213)"><g fill="#55b0ff"><path d="m219.326 519.958-196.5-96.006V39c0-9.099 7.402-16.5 16.5-16.5h360c9.099 0 16.5 7.401 16.5 16.5V423.95l-196.5 96.007z"/><path d="m219.326 494.917 174-85.014V44.999h-348v364.904l174 85.014m0 50.083-219-107V39c0-21.54 17.46-39 39-39h360c21.54 0 39 17.46 39 39v399l-219 107z" fill="#428ac8"/></g><rect width="291" height="56" rx="2" transform="translate(73.326 337)" fill="#292c32"/><text transform="translate(219.326 378)" fill="#55b0ff" font-size="41" font-family="Bahnschrift" font-weight="700"><tspan x="-122.259" y="0">~</tspan><tspan y="0" text-decoration="underline">SCRIPTING</tspan><tspan y="0">~</tspan></text><text transform="translate(219.326 323)" fill="#292c32" font-size="43" font-family="Bahnschrift" font-weight="600"><tspan x="-27.137" y="0">My</tspan><tspan x="-49.519" y="111">Work</tspan></text><path d="M103.981 267.28h230.328" fill="none" stroke="#292c32" stroke-linecap="round" stroke-width="15"/><rect width="192" height="158" rx="33" transform="translate(123.326 72)" fill="#292c32"/><g fill="none" stroke="#55b0ff"><path data-name="Path 366" d="m184.806 119.991-27.753 30.442 27.753 31.165" stroke-width="15"/><path data-name="Path 367" d="m251.353 119.991 27.753 30.442-27.753 31.165" stroke-width="15"/><path data-name="Path 371" d="m233.14 106.876-30.22 88.684" stroke-linecap="round" stroke-width="10.002500000000001"/></g></g></g></svg>