<svg xmlns="http://www.w3.org/2000/svg" xmlns:xlink="http://www.w3.org/1999/xlink" width="1920" height="1080" viewBox="0 0 1920 1080">
  <defs>
    <linearGradient id="linear-gradient" x1="0.5" x2="0.5" y2="1" gradientUnits="objectBoundingBox">
      <stop offset="0" stop-color="#363a44"/>
      <stop offset="0.172" stop-color="#25272d"/>
      <stop offset="0.49" stop-color="#25272d"/>
      <stop offset="0.841" stop-color="#25272d"/>
      <stop offset="1" stop-color="#363a44"/>
    </linearGradient>
    <filter id="Union_2" x="-30.5" y="-30.5" width="182.948" height="587.62" filterUnits="userSpaceOnUse">
      <feOffset input="SourceAlpha"/>
      <feGaussianBlur stdDeviation="10" result="blur"/>
      <feFlood flood-color="#58ffb2"/>
      <feComposite operator="in" in2="blur"/>
      <feComposite in="SourceGraphic"/>
    </filter>
    <filter id="Union_106" x="679.5" y="-16.5" width="182.948" height="587.62" filterUnits="userSpaceOnUse">
      <feOffset input="SourceAlpha"/>
      <feGaussianBlur stdDeviation="10" result="blur-2"/>
      <feFlood flood-color="#00b9ff"/>
      <feComposite operator="in" in2="blur-2"/>
      <feComposite in="SourceGraphic"/>
    </filter>
    <filter id="Union_70" x="-30.5" y="-30.5" width="182.948" height="587.62" filterUnits="userSpaceOnUse">
      <feOffset input="SourceAlpha"/>
      <feGaussianBlur stdDeviation="10" result="blur-3"/>
      <feFlood flood-color="#58ffb2"/>
      <feComposite operator="in" in2="blur-3"/>
      <feComposite in="SourceGraphic"/>
    </filter>
    <filter id="Union_108" x="679.5" y="-16.5" width="182.948" height="587.62" filterUnits="userSpaceOnUse">
      <feOffset input="SourceAlpha"/>
      <feGaussianBlur stdDeviation="10" result="blur-4"/>
      <feFlood flood-color="#00b9ff"/>
      <feComposite operator="in" in2="blur-4"/>
      <feComposite in="SourceGraphic"/>
    </filter>
    <filter id="Union_14" x="1655.5" y="-23.5" width="182.948" height="587.62" filterUnits="userSpaceOnUse">
      <feOffset input="SourceAlpha"/>
      <feGaussianBlur stdDeviation="10" result="blur-5"/>
      <feFlood flood-color="#f09"/>
      <feComposite operator="in" in2="blur-5"/>
      <feComposite in="SourceGraphic"/>
    </filter>
    <filter id="Union_44" x="1655.5" y="-23.5" width="182.948" height="587.62" filterUnits="userSpaceOnUse">
      <feOffset input="SourceAlpha"/>
      <feGaussianBlur stdDeviation="10" result="blur-6"/>
      <feFlood flood-color="#f09"/>
      <feComposite operator="in" in2="blur-6"/>
      <feComposite in="SourceGraphic"/>
    </filter>
    <filter id="Union_18" x="235.893" y="-30.5" width="182.948" height="587.62" filterUnits="userSpaceOnUse">
      <feOffset input="SourceAlpha"/>
      <feGaussianBlur stdDeviation="10" result="blur-7"/>
      <feFlood flood-color="#58ffb2"/>
      <feComposite operator="in" in2="blur-7"/>
      <feComposite in="SourceGraphic"/>
    </filter>
    <filter id="Union_94" x="945.893" y="-16.5" width="182.948" height="587.62" filterUnits="userSpaceOnUse">
      <feOffset input="SourceAlpha"/>
      <feGaussianBlur stdDeviation="10" result="blur-8"/>
      <feFlood flood-color="#00b9ff"/>
      <feComposite operator="in" in2="blur-8"/>
      <feComposite in="SourceGraphic"/>
    </filter>
    <filter id="Union_72" x="235.893" y="-30.5" width="182.948" height="587.62" filterUnits="userSpaceOnUse">
      <feOffset input="SourceAlpha"/>
      <feGaussianBlur stdDeviation="10" result="blur-9"/>
      <feFlood flood-color="#58ffb2"/>
      <feComposite operator="in" in2="blur-9"/>
      <feComposite in="SourceGraphic"/>
    </filter>
    <filter id="Union_96" x="945.893" y="-16.5" width="182.948" height="587.62" filterUnits="userSpaceOnUse">
      <feOffset input="SourceAlpha"/>
      <feGaussianBlur stdDeviation="10" result="blur-10"/>
      <feFlood flood-color="#00b9ff"/>
      <feComposite operator="in" in2="blur-10"/>
      <feComposite in="SourceGraphic"/>
    </filter>
    <filter id="Union_38" x="1389.442" y="-37.5" width="182.948" height="587.62" filterUnits="userSpaceOnUse">
      <feOffset input="SourceAlpha"/>
      <feGaussianBlur stdDeviation="10" result="blur-11"/>
      <feFlood flood-color="#f09"/>
      <feComposite operator="in" in2="blur-11"/>
      <feComposite in="SourceGraphic"/>
    </filter>
    <filter id="Union_46" x="1389.442" y="-37.5" width="182.948" height="587.62" filterUnits="userSpaceOnUse">
      <feOffset input="SourceAlpha"/>
      <feGaussianBlur stdDeviation="10" result="blur-12"/>
      <feFlood flood-color="#f09"/>
      <feComposite operator="in" in2="blur-12"/>
      <feComposite in="SourceGraphic"/>
    </filter>
    <filter id="Union_8" x="80.276" y="-30.5" width="182.948" height="587.62" filterUnits="userSpaceOnUse">
      <feOffset input="SourceAlpha"/>
      <feGaussianBlur stdDeviation="10" result="blur-13"/>
      <feFlood flood-color="#58ffb2"/>
      <feComposite operator="in" in2="blur-13"/>
      <feComposite in="SourceGraphic"/>
    </filter>
    <filter id="Union_98" x="790.276" y="-16.5" width="182.948" height="587.62" filterUnits="userSpaceOnUse">
      <feOffset input="SourceAlpha"/>
      <feGaussianBlur stdDeviation="10" result="blur-14"/>
      <feFlood flood-color="#00b9ff"/>
      <feComposite operator="in" in2="blur-14"/>
      <feComposite in="SourceGraphic"/>
    </filter>
    <filter id="Union_74" x="80.276" y="-30.5" width="182.948" height="587.62" filterUnits="userSpaceOnUse">
      <feOffset input="SourceAlpha"/>
      <feGaussianBlur stdDeviation="10" result="blur-15"/>
      <feFlood flood-color="#58ffb2"/>
      <feComposite operator="in" in2="blur-15"/>
      <feComposite in="SourceGraphic"/>
    </filter>
    <filter id="Union_100" x="790.276" y="-16.5" width="182.948" height="587.62" filterUnits="userSpaceOnUse">
      <feOffset input="SourceAlpha"/>
      <feGaussianBlur stdDeviation="10" result="blur-16"/>
      <feFlood flood-color="#00b9ff"/>
      <feComposite operator="in" in2="blur-16"/>
      <feComposite in="SourceGraphic"/>
    </filter>
    <filter id="Union_16" x="1766.276" y="-23.5" width="182.948" height="587.62" filterUnits="userSpaceOnUse">
      <feOffset input="SourceAlpha"/>
      <feGaussianBlur stdDeviation="10" result="blur-17"/>
      <feFlood flood-color="#f09"/>
      <feComposite operator="in" in2="blur-17"/>
      <feComposite in="SourceGraphic"/>
    </filter>
    <filter id="Union_50" x="1766.276" y="-23.5" width="182.948" height="587.62" filterUnits="userSpaceOnUse">
      <feOffset input="SourceAlpha"/>
      <feGaussianBlur stdDeviation="10" result="blur-18"/>
      <feFlood flood-color="#f09"/>
      <feComposite operator="in" in2="blur-18"/>
      <feComposite in="SourceGraphic"/>
    </filter>
    <filter id="Union_22" x="346.669" y="-30.5" width="182.948" height="587.62" filterUnits="userSpaceOnUse">
      <feOffset input="SourceAlpha"/>
      <feGaussianBlur stdDeviation="10" result="blur-19"/>
      <feFlood flood-color="#58ffb2"/>
      <feComposite operator="in" in2="blur-19"/>
      <feComposite in="SourceGraphic"/>
    </filter>
    <filter id="Union_102" x="1056.669" y="-16.5" width="182.948" height="587.62" filterUnits="userSpaceOnUse">
      <feOffset input="SourceAlpha"/>
      <feGaussianBlur stdDeviation="10" result="blur-20"/>
      <feFlood flood-color="#00b9ff"/>
      <feComposite operator="in" in2="blur-20"/>
      <feComposite in="SourceGraphic"/>
    </filter>
    <filter id="Union_52" x="346.669" y="-30.5" width="182.948" height="587.62" filterUnits="userSpaceOnUse">
      <feOffset input="SourceAlpha"/>
      <feGaussianBlur stdDeviation="10" result="blur-21"/>
      <feFlood flood-color="#58ffb2"/>
      <feComposite operator="in" in2="blur-21"/>
      <feComposite in="SourceGraphic"/>
    </filter>
    <filter id="Union_104" x="1056.669" y="-16.5" width="182.948" height="587.62" filterUnits="userSpaceOnUse">
      <feOffset input="SourceAlpha"/>
      <feGaussianBlur stdDeviation="10" result="blur-22"/>
      <feFlood flood-color="#00b9ff"/>
      <feComposite operator="in" in2="blur-22"/>
      <feComposite in="SourceGraphic"/>
    </filter>
    <filter id="Union_40" x="1500.218" y="-37.5" width="182.948" height="587.62" filterUnits="userSpaceOnUse">
      <feOffset input="SourceAlpha"/>
      <feGaussianBlur stdDeviation="10" result="blur-23"/>
      <feFlood flood-color="#f09"/>
      <feComposite operator="in" in2="blur-23"/>
      <feComposite in="SourceGraphic"/>
    </filter>
    <filter id="Union_54" x="1500.218" y="-37.5" width="182.948" height="587.62" filterUnits="userSpaceOnUse">
      <feOffset input="SourceAlpha"/>
      <feGaussianBlur stdDeviation="10" result="blur-24"/>
      <feFlood flood-color="#f09"/>
      <feComposite operator="in" in2="blur-24"/>
      <feComposite in="SourceGraphic"/>
    </filter>
    <filter id="Union_4" x="-30.5" y="523.38" width="182.948" height="587.62" filterUnits="userSpaceOnUse">
      <feOffset input="SourceAlpha"/>
      <feGaussianBlur stdDeviation="10" result="blur-25"/>
      <feFlood flood-color="#58ffb2"/>
      <feComposite operator="in" in2="blur-25"/>
      <feComposite in="SourceGraphic"/>
    </filter>
    <filter id="Union_110" x="679.5" y="537.38" width="182.948" height="587.62" filterUnits="userSpaceOnUse">
      <feOffset input="SourceAlpha"/>
      <feGaussianBlur stdDeviation="10" result="blur-26"/>
      <feFlood flood-color="#00b9ff"/>
      <feComposite operator="in" in2="blur-26"/>
      <feComposite in="SourceGraphic"/>
    </filter>
    <filter id="Union_76" x="-30.5" y="523.38" width="182.948" height="587.62" filterUnits="userSpaceOnUse">
      <feOffset input="SourceAlpha"/>
      <feGaussianBlur stdDeviation="10" result="blur-27"/>
      <feFlood flood-color="#58ffb2"/>
      <feComposite operator="in" in2="blur-27"/>
      <feComposite in="SourceGraphic"/>
    </filter>
    <filter id="Union_112" x="679.5" y="537.38" width="182.948" height="587.62" filterUnits="userSpaceOnUse">
      <feOffset input="SourceAlpha"/>
      <feGaussianBlur stdDeviation="10" result="blur-28"/>
      <feFlood flood-color="#00b9ff"/>
      <feComposite operator="in" in2="blur-28"/>
      <feComposite in="SourceGraphic"/>
    </filter>
    <filter id="Union_12" x="1655.5" y="530.38" width="182.948" height="587.62" filterUnits="userSpaceOnUse">
      <feOffset input="SourceAlpha"/>
      <feGaussianBlur stdDeviation="10" result="blur-29"/>
      <feFlood flood-color="#f09"/>
      <feComposite operator="in" in2="blur-29"/>
      <feComposite in="SourceGraphic"/>
    </filter>
    <filter id="Union_58" x="1655.5" y="530.38" width="182.948" height="587.62" filterUnits="userSpaceOnUse">
      <feOffset input="SourceAlpha"/>
      <feGaussianBlur stdDeviation="10" result="blur-30"/>
      <feFlood flood-color="#f09"/>
      <feComposite operator="in" in2="blur-30"/>
      <feComposite in="SourceGraphic"/>
    </filter>
    <filter id="Union_20" x="235.893" y="523.38" width="182.948" height="587.62" filterUnits="userSpaceOnUse">
      <feOffset input="SourceAlpha"/>
      <feGaussianBlur stdDeviation="10" result="blur-31"/>
      <feFlood flood-color="#58ffb2"/>
      <feComposite operator="in" in2="blur-31"/>
      <feComposite in="SourceGraphic"/>
    </filter>
    <filter id="Union_86" x="945.893" y="537.38" width="182.948" height="587.62" filterUnits="userSpaceOnUse">
      <feOffset input="SourceAlpha"/>
      <feGaussianBlur stdDeviation="10" result="blur-32"/>
      <feFlood flood-color="#00b9ff"/>
      <feComposite operator="in" in2="blur-32"/>
      <feComposite in="SourceGraphic"/>
    </filter>
    <filter id="Union_78" x="235.893" y="523.38" width="182.948" height="587.62" filterUnits="userSpaceOnUse">
      <feOffset input="SourceAlpha"/>
      <feGaussianBlur stdDeviation="10" result="blur-33"/>
      <feFlood flood-color="#58ffb2"/>
      <feComposite operator="in" in2="blur-33"/>
      <feComposite in="SourceGraphic"/>
    </filter>
    <filter id="Union_88" x="945.893" y="537.38" width="182.948" height="587.62" filterUnits="userSpaceOnUse">
      <feOffset input="SourceAlpha"/>
      <feGaussianBlur stdDeviation="10" result="blur-34"/>
      <feFlood flood-color="#00b9ff"/>
      <feComposite operator="in" in2="blur-34"/>
      <feComposite in="SourceGraphic"/>
    </filter>
    <filter id="Union_36" x="1389.442" y="516.38" width="182.948" height="587.62" filterUnits="userSpaceOnUse">
      <feOffset input="SourceAlpha"/>
      <feGaussianBlur stdDeviation="10" result="blur-35"/>
      <feFlood flood-color="#f09"/>
      <feComposite operator="in" in2="blur-35"/>
      <feComposite in="SourceGraphic"/>
    </filter>
    <filter id="Union_60" x="1389.442" y="516.38" width="182.948" height="587.62" filterUnits="userSpaceOnUse">
      <feOffset input="SourceAlpha"/>
      <feGaussianBlur stdDeviation="10" result="blur-36"/>
      <feFlood flood-color="#f09"/>
      <feComposite operator="in" in2="blur-36"/>
      <feComposite in="SourceGraphic"/>
    </filter>
    <filter id="Union_6" x="80.276" y="523.38" width="182.948" height="587.62" filterUnits="userSpaceOnUse">
      <feOffset input="SourceAlpha"/>
      <feGaussianBlur stdDeviation="10" result="blur-37"/>
      <feFlood flood-color="#58ffb2"/>
      <feComposite operator="in" in2="blur-37"/>
      <feComposite in="SourceGraphic"/>
    </filter>
    <filter id="Union_90" x="790.276" y="537.38" width="182.948" height="587.62" filterUnits="userSpaceOnUse">
      <feOffset input="SourceAlpha"/>
      <feGaussianBlur stdDeviation="10" result="blur-38"/>
      <feFlood flood-color="#00b9ff"/>
      <feComposite operator="in" in2="blur-38"/>
      <feComposite in="SourceGraphic"/>
    </filter>
    <filter id="Union_80" x="80.276" y="523.38" width="182.948" height="587.62" filterUnits="userSpaceOnUse">
      <feOffset input="SourceAlpha"/>
      <feGaussianBlur stdDeviation="10" result="blur-39"/>
      <feFlood flood-color="#58ffb2"/>
      <feComposite operator="in" in2="blur-39"/>
      <feComposite in="SourceGraphic"/>
    </filter>
    <filter id="Union_92" x="790.276" y="537.38" width="182.948" height="587.62" filterUnits="userSpaceOnUse">
      <feOffset input="SourceAlpha"/>
      <feGaussianBlur stdDeviation="10" result="blur-40"/>
      <feFlood flood-color="#00b9ff"/>
      <feComposite operator="in" in2="blur-40"/>
      <feComposite in="SourceGraphic"/>
    </filter>
    <filter id="Union_10" x="1766.276" y="530.38" width="182.948" height="587.62" filterUnits="userSpaceOnUse">
      <feOffset input="SourceAlpha"/>
      <feGaussianBlur stdDeviation="10" result="blur-41"/>
      <feFlood flood-color="#f09"/>
      <feComposite operator="in" in2="blur-41"/>
      <feComposite in="SourceGraphic"/>
    </filter>
    <filter id="Union_42" x="1766.276" y="530.38" width="182.948" height="587.62" filterUnits="userSpaceOnUse">
      <feOffset input="SourceAlpha"/>
      <feGaussianBlur stdDeviation="10" result="blur-42"/>
      <feFlood flood-color="#f09"/>
      <feComposite operator="in" in2="blur-42"/>
      <feComposite in="SourceGraphic"/>
    </filter>
    <filter id="Union_24" x="346.669" y="523.38" width="182.948" height="587.62" filterUnits="userSpaceOnUse">
      <feOffset input="SourceAlpha"/>
      <feGaussianBlur stdDeviation="10" result="blur-43"/>
      <feFlood flood-color="#58ffb2"/>
      <feComposite operator="in" in2="blur-43"/>
      <feComposite in="SourceGraphic"/>
    </filter>
    <filter id="Union_82" x="1056.669" y="537.38" width="182.948" height="587.62" filterUnits="userSpaceOnUse">
      <feOffset input="SourceAlpha"/>
      <feGaussianBlur stdDeviation="10" result="blur-44"/>
      <feFlood flood-color="#00b9ff"/>
      <feComposite operator="in" in2="blur-44"/>
      <feComposite in="SourceGraphic"/>
    </filter>
    <filter id="Union_64" x="346.669" y="523.38" width="182.948" height="587.62" filterUnits="userSpaceOnUse">
      <feOffset input="SourceAlpha"/>
      <feGaussianBlur stdDeviation="10" result="blur-45"/>
      <feFlood flood-color="#58ffb2"/>
      <feComposite operator="in" in2="blur-45"/>
      <feComposite in="SourceGraphic"/>
    </filter>
    <filter id="Union_84" x="1056.669" y="537.38" width="182.948" height="587.62" filterUnits="userSpaceOnUse">
      <feOffset input="SourceAlpha"/>
      <feGaussianBlur stdDeviation="10" result="blur-46"/>
      <feFlood flood-color="#00b9ff"/>
      <feComposite operator="in" in2="blur-46"/>
      <feComposite in="SourceGraphic"/>
    </filter>
    <filter id="Union_34" x="1500.218" y="516.38" width="182.948" height="587.62" filterUnits="userSpaceOnUse">
      <feOffset input="SourceAlpha"/>
      <feGaussianBlur stdDeviation="10" result="blur-47"/>
      <feFlood flood-color="#f09"/>
      <feComposite operator="in" in2="blur-47"/>
      <feComposite in="SourceGraphic"/>
    </filter>
    <filter id="Union_66" x="1500.218" y="516.38" width="182.948" height="587.62" filterUnits="userSpaceOnUse">
      <feOffset input="SourceAlpha"/>
      <feGaussianBlur stdDeviation="10" result="blur-48"/>
      <feFlood flood-color="#f09"/>
      <feComposite operator="in" in2="blur-48"/>
      <feComposite in="SourceGraphic"/>
    </filter>
    <clipPath id="clip-WebsiteBack">
      <rect width="1920" height="1080"/>
    </clipPath>
  </defs>
  <g id="WebsiteBack" clip-path="url(#clip-WebsiteBack)">
    <rect width="1920" height="1080" fill="url(#linear-gradient)"/>
    <g transform="matrix(1, 0, 0, 1, 0, 0)" filter="url(#Union_2)">
      <path id="Union_2-2" data-name="Union 2" d="M109.646,519.97a5.634,5.634,0,0,1,1.655-4L.209,404.88,0,405.089l.209-.209L0,404.672l.209.209L36.589,368.5h0l31.972-31.972a5.651,5.651,0,1,1,3.783,1.452,5.638,5.638,0,0,1-3.783-1.452L36.589,368.5h73.057a5.651,5.651,0,1,1,5.652,5.652,5.653,5.653,0,0,1-5.652-5.652H36.589L.209,404.88,111.3,515.973a5.651,5.651,0,1,1-1.655,4Zm1.656-93.216a5.651,5.651,0,1,1,4,1.656,5.634,5.634,0,0,1-4-1.656l-43.48,43.478Zm0-194.424a5.651,5.651,0,1,1,4,1.656,5.635,5.635,0,0,1-4-1.656L0,343.632ZM0,241.9l49.735,49.735Zm31.651-58.779L0,214.771Zm77.995,0h0a5.651,5.651,0,1,1,5.652,5.652A5.653,5.653,0,0,1,109.646,183.119ZM71.213,140.166a5.635,5.635,0,0,1,1.656-4L38.433,101.733,0,140.166l38.433-38.433L0,63.3l38.433,38.433L111.3,28.864a5.651,5.651,0,0,1,0-7.993L90.428,0,111.3,20.871a5.652,5.652,0,1,1,0,7.993L38.433,101.733l34.436,34.436a5.652,5.652,0,1,1-1.656,4ZM32.78,38.433a5.652,5.652,0,1,1,5.652,5.652A5.633,5.633,0,0,1,32.78,38.433ZM0,0H0L34.437,34.437Z" transform="translate(0.5 0.5)" fill="none" stroke="#58ffb2" stroke-linejoin="round" stroke-width="2"/>
    </g>
    <g transform="matrix(1, 0, 0, 1, 0, 0)" filter="url(#Union_106)">
      <path id="Union_106-2" data-name="Union 106" d="M109.646,519.97a5.634,5.634,0,0,1,1.655-4L.209,404.88,0,405.089l.209-.209L0,404.672l.209.209L36.589,368.5h0l31.972-31.972a5.651,5.651,0,1,1,3.783,1.452,5.638,5.638,0,0,1-3.783-1.452L36.589,368.5h73.057a5.651,5.651,0,1,1,5.652,5.652,5.653,5.653,0,0,1-5.652-5.652H36.589L.209,404.88,111.3,515.973a5.651,5.651,0,1,1-1.655,4Zm1.656-93.216a5.651,5.651,0,1,1,4,1.656,5.634,5.634,0,0,1-4-1.656l-43.48,43.478Zm0-194.424a5.651,5.651,0,1,1,4,1.656,5.635,5.635,0,0,1-4-1.656L0,343.632ZM0,241.9l49.735,49.735Zm31.651-58.779L0,214.771Zm77.995,0h0a5.651,5.651,0,1,1,5.652,5.652A5.653,5.653,0,0,1,109.646,183.119ZM71.213,140.166a5.635,5.635,0,0,1,1.656-4L38.433,101.733,0,140.166l38.433-38.433L0,63.3l38.433,38.433L111.3,28.864a5.651,5.651,0,0,1,0-7.993L90.428,0,111.3,20.871a5.652,5.652,0,1,1,0,7.993L38.433,101.733l34.436,34.436a5.652,5.652,0,1,1-1.656,4ZM32.78,38.433a5.652,5.652,0,1,1,5.652,5.652A5.633,5.633,0,0,1,32.78,38.433ZM0,0H0L34.437,34.437Z" transform="translate(710.5 14.5)" fill="none" stroke="#00b9ff" stroke-linejoin="round" stroke-width="2"/>
    </g>
    <g transform="matrix(1, 0, 0, 1, 0, 0)" filter="url(#Union_70)">
      <path id="Union_70-2" data-name="Union 70" d="M109.646,519.97a5.634,5.634,0,0,1,1.655-4L.209,404.88,0,405.089l.209-.209L0,404.672l.209.209L36.589,368.5h0l31.972-31.972a5.651,5.651,0,1,1,3.783,1.452,5.638,5.638,0,0,1-3.783-1.452L36.589,368.5h73.057a5.651,5.651,0,1,1,5.652,5.652,5.653,5.653,0,0,1-5.652-5.652H36.589L.209,404.88,111.3,515.973a5.651,5.651,0,1,1-1.655,4Zm1.656-93.216a5.651,5.651,0,1,1,4,1.656,5.634,5.634,0,0,1-4-1.656l-43.48,43.478Zm0-194.424a5.651,5.651,0,1,1,4,1.656,5.635,5.635,0,0,1-4-1.656L0,343.632ZM0,241.9l49.735,49.735Zm31.651-58.779L0,214.771Zm77.995,0h0a5.651,5.651,0,1,1,5.652,5.652A5.653,5.653,0,0,1,109.646,183.119ZM71.213,140.166a5.635,5.635,0,0,1,1.656-4L38.433,101.733,0,140.166l38.433-38.433L0,63.3l38.433,38.433L111.3,28.864a5.651,5.651,0,0,1,0-7.993L90.428,0,111.3,20.871a5.652,5.652,0,1,1,0,7.993L38.433,101.733l34.436,34.436a5.652,5.652,0,1,1-1.656,4ZM32.78,38.433a5.652,5.652,0,1,1,5.652,5.652A5.633,5.633,0,0,1,32.78,38.433ZM0,0H0L34.437,34.437Z" transform="translate(0.5 0.5)" fill="none" stroke="#58ffb2" stroke-linejoin="round" stroke-width="2"/>
    </g>
    <g transform="matrix(1, 0, 0, 1, 0, 0)" filter="url(#Union_108)">
      <path id="Union_108-2" data-name="Union 108" d="M109.646,519.97a5.634,5.634,0,0,1,1.655-4L.209,404.88,0,405.089l.209-.209L0,404.672l.209.209L36.589,368.5h0l31.972-31.972a5.651,5.651,0,1,1,3.783,1.452,5.638,5.638,0,0,1-3.783-1.452L36.589,368.5h73.057a5.651,5.651,0,1,1,5.652,5.652,5.653,5.653,0,0,1-5.652-5.652H36.589L.209,404.88,111.3,515.973a5.651,5.651,0,1,1-1.655,4Zm1.656-93.216a5.651,5.651,0,1,1,4,1.656,5.634,5.634,0,0,1-4-1.656l-43.48,43.478Zm0-194.424a5.651,5.651,0,1,1,4,1.656,5.635,5.635,0,0,1-4-1.656L0,343.632ZM0,241.9l49.735,49.735Zm31.651-58.779L0,214.771Zm77.995,0h0a5.651,5.651,0,1,1,5.652,5.652A5.653,5.653,0,0,1,109.646,183.119ZM71.213,140.166a5.635,5.635,0,0,1,1.656-4L38.433,101.733,0,140.166l38.433-38.433L0,63.3l38.433,38.433L111.3,28.864a5.651,5.651,0,0,1,0-7.993L90.428,0,111.3,20.871a5.652,5.652,0,1,1,0,7.993L38.433,101.733l34.436,34.436a5.652,5.652,0,1,1-1.656,4ZM32.78,38.433a5.652,5.652,0,1,1,5.652,5.652A5.633,5.633,0,0,1,32.78,38.433ZM0,0H0L34.437,34.437Z" transform="translate(710.5 14.5)" fill="none" stroke="#00b9ff" stroke-linejoin="round" stroke-width="2"/>
    </g>
    <g transform="matrix(1, 0, 0, 1, 0, 0)" filter="url(#Union_14)">
      <path id="Union_14-2" data-name="Union 14" d="M109.646,519.97a5.634,5.634,0,0,1,1.655-4L.209,404.88,0,405.089l.209-.209L0,404.672l.209.209L36.589,368.5h0l31.972-31.972a5.651,5.651,0,1,1,3.783,1.452,5.638,5.638,0,0,1-3.783-1.452L36.589,368.5h73.057a5.651,5.651,0,1,1,5.652,5.652,5.653,5.653,0,0,1-5.652-5.652H36.589L.209,404.88,111.3,515.973a5.651,5.651,0,1,1-1.655,4Zm1.656-93.216a5.651,5.651,0,1,1,4,1.656,5.634,5.634,0,0,1-4-1.656l-43.48,43.478Zm0-194.424a5.651,5.651,0,1,1,4,1.656,5.635,5.635,0,0,1-4-1.656L0,343.632ZM0,241.9l49.735,49.735Zm31.651-58.779L0,214.771Zm77.995,0h0a5.651,5.651,0,1,1,5.652,5.652A5.653,5.653,0,0,1,109.646,183.119ZM71.213,140.166a5.635,5.635,0,0,1,1.656-4L38.433,101.733,0,140.166l38.433-38.433L0,63.3l38.433,38.433L111.3,28.864a5.651,5.651,0,0,1,0-7.993L90.428,0,111.3,20.871a5.652,5.652,0,1,1,0,7.993L38.433,101.733l34.436,34.436a5.652,5.652,0,1,1-1.656,4ZM32.78,38.433a5.652,5.652,0,1,1,5.652,5.652A5.633,5.633,0,0,1,32.78,38.433ZM0,0H0L34.437,34.437Z" transform="translate(1686.5 7.5)" fill="none" stroke="#f09" stroke-linejoin="round" stroke-width="2"/>
    </g>
    <g transform="matrix(1, 0, 0, 1, 0, 0)" filter="url(#Union_44)">
      <path id="Union_44-2" data-name="Union 44" d="M109.646,519.97a5.634,5.634,0,0,1,1.655-4L.209,404.88,0,405.089l.209-.209L0,404.672l.209.209L36.589,368.5h0l31.972-31.972a5.651,5.651,0,1,1,3.783,1.452,5.638,5.638,0,0,1-3.783-1.452L36.589,368.5h73.057a5.651,5.651,0,1,1,5.652,5.652,5.653,5.653,0,0,1-5.652-5.652H36.589L.209,404.88,111.3,515.973a5.651,5.651,0,1,1-1.655,4Zm1.656-93.216a5.651,5.651,0,1,1,4,1.656,5.634,5.634,0,0,1-4-1.656l-43.48,43.478Zm0-194.424a5.651,5.651,0,1,1,4,1.656,5.635,5.635,0,0,1-4-1.656L0,343.632ZM0,241.9l49.735,49.735Zm31.651-58.779L0,214.771Zm77.995,0h0a5.651,5.651,0,1,1,5.652,5.652A5.653,5.653,0,0,1,109.646,183.119ZM71.213,140.166a5.635,5.635,0,0,1,1.656-4L38.433,101.733,0,140.166l38.433-38.433L0,63.3l38.433,38.433L111.3,28.864a5.651,5.651,0,0,1,0-7.993L90.428,0,111.3,20.871a5.652,5.652,0,1,1,0,7.993L38.433,101.733l34.436,34.436a5.652,5.652,0,1,1-1.656,4ZM32.78,38.433a5.652,5.652,0,1,1,5.652,5.652A5.633,5.633,0,0,1,32.78,38.433ZM0,0H0L34.437,34.437Z" transform="translate(1686.5 7.5)" fill="none" stroke="#f09" stroke-linejoin="round" stroke-width="2"/>
    </g>
    <g transform="matrix(1, 0, 0, 1, 0, 0)" filter="url(#Union_18)">
      <path id="Union_18-2" data-name="Union 18" d="M109.646,519.97a5.634,5.634,0,0,1,1.655-4L.209,404.88,0,405.089l.209-.209L0,404.672l.209.209L36.589,368.5h0l31.972-31.972a5.651,5.651,0,1,1,3.783,1.452,5.638,5.638,0,0,1-3.783-1.452L36.589,368.5h73.057a5.651,5.651,0,1,1,5.652,5.652,5.653,5.653,0,0,1-5.652-5.652H36.589L.209,404.88,111.3,515.973a5.651,5.651,0,1,1-1.655,4Zm1.656-93.216a5.651,5.651,0,1,1,4,1.656,5.634,5.634,0,0,1-4-1.656l-43.48,43.478Zm0-194.424a5.651,5.651,0,1,1,4,1.656,5.635,5.635,0,0,1-4-1.656L0,343.632ZM0,241.9l49.735,49.735Zm31.651-58.779L0,214.771Zm77.995,0h0a5.651,5.651,0,1,1,5.652,5.652A5.653,5.653,0,0,1,109.646,183.119ZM71.213,140.166a5.635,5.635,0,0,1,1.656-4L38.433,101.733,0,140.166l38.433-38.433L0,63.3l38.433,38.433L111.3,28.864a5.651,5.651,0,0,1,0-7.993L90.428,0,111.3,20.871a5.652,5.652,0,1,1,0,7.993L38.433,101.733l34.436,34.436a5.652,5.652,0,1,1-1.656,4ZM32.78,38.433a5.652,5.652,0,1,1,5.652,5.652A5.633,5.633,0,0,1,32.78,38.433ZM0,0H0L34.437,34.437Z" transform="translate(266.89 0.5)" fill="none" stroke="#58ffb2" stroke-linejoin="round" stroke-width="2"/>
    </g>
    <g transform="matrix(1, 0, 0, 1, 0, 0)" filter="url(#Union_94)">
      <path id="Union_94-2" data-name="Union 94" d="M109.646,519.97a5.634,5.634,0,0,1,1.655-4L.209,404.88,0,405.089l.209-.209L0,404.672l.209.209L36.589,368.5h0l31.972-31.972a5.651,5.651,0,1,1,3.783,1.452,5.638,5.638,0,0,1-3.783-1.452L36.589,368.5h73.057a5.651,5.651,0,1,1,5.652,5.652,5.653,5.653,0,0,1-5.652-5.652H36.589L.209,404.88,111.3,515.973a5.651,5.651,0,1,1-1.655,4Zm1.656-93.216a5.651,5.651,0,1,1,4,1.656,5.634,5.634,0,0,1-4-1.656l-43.48,43.478Zm0-194.424a5.651,5.651,0,1,1,4,1.656,5.635,5.635,0,0,1-4-1.656L0,343.632ZM0,241.9l49.735,49.735Zm31.651-58.779L0,214.771Zm77.995,0h0a5.651,5.651,0,1,1,5.652,5.652A5.653,5.653,0,0,1,109.646,183.119ZM71.213,140.166a5.635,5.635,0,0,1,1.656-4L38.433,101.733,0,140.166l38.433-38.433L0,63.3l38.433,38.433L111.3,28.864a5.651,5.651,0,0,1,0-7.993L90.428,0,111.3,20.871a5.652,5.652,0,1,1,0,7.993L38.433,101.733l34.436,34.436a5.652,5.652,0,1,1-1.656,4ZM32.78,38.433a5.652,5.652,0,1,1,5.652,5.652A5.633,5.633,0,0,1,32.78,38.433ZM0,0H0L34.437,34.437Z" transform="translate(976.89 14.5)" fill="none" stroke="#00b9ff" stroke-linejoin="round" stroke-width="2"/>
    </g>
    <g transform="matrix(1, 0, 0, 1, 0, 0)" filter="url(#Union_72)">
      <path id="Union_72-2" data-name="Union 72" d="M109.646,519.97a5.634,5.634,0,0,1,1.655-4L.209,404.88,0,405.089l.209-.209L0,404.672l.209.209L36.589,368.5h0l31.972-31.972a5.651,5.651,0,1,1,3.783,1.452,5.638,5.638,0,0,1-3.783-1.452L36.589,368.5h73.057a5.651,5.651,0,1,1,5.652,5.652,5.653,5.653,0,0,1-5.652-5.652H36.589L.209,404.88,111.3,515.973a5.651,5.651,0,1,1-1.655,4Zm1.656-93.216a5.651,5.651,0,1,1,4,1.656,5.634,5.634,0,0,1-4-1.656l-43.48,43.478Zm0-194.424a5.651,5.651,0,1,1,4,1.656,5.635,5.635,0,0,1-4-1.656L0,343.632ZM0,241.9l49.735,49.735Zm31.651-58.779L0,214.771Zm77.995,0h0a5.651,5.651,0,1,1,5.652,5.652A5.653,5.653,0,0,1,109.646,183.119ZM71.213,140.166a5.635,5.635,0,0,1,1.656-4L38.433,101.733,0,140.166l38.433-38.433L0,63.3l38.433,38.433L111.3,28.864a5.651,5.651,0,0,1,0-7.993L90.428,0,111.3,20.871a5.652,5.652,0,1,1,0,7.993L38.433,101.733l34.436,34.436a5.652,5.652,0,1,1-1.656,4ZM32.78,38.433a5.652,5.652,0,1,1,5.652,5.652A5.633,5.633,0,0,1,32.78,38.433ZM0,0H0L34.437,34.437Z" transform="translate(266.89 0.5)" fill="none" stroke="#58ffb2" stroke-linejoin="round" stroke-width="2"/>
    </g>
    <g transform="matrix(1, 0, 0, 1, 0, 0)" filter="url(#Union_96)">
      <path id="Union_96-2" data-name="Union 96" d="M109.646,519.97a5.634,5.634,0,0,1,1.655-4L.209,404.88,0,405.089l.209-.209L0,404.672l.209.209L36.589,368.5h0l31.972-31.972a5.651,5.651,0,1,1,3.783,1.452,5.638,5.638,0,0,1-3.783-1.452L36.589,368.5h73.057a5.651,5.651,0,1,1,5.652,5.652,5.653,5.653,0,0,1-5.652-5.652H36.589L.209,404.88,111.3,515.973a5.651,5.651,0,1,1-1.655,4Zm1.656-93.216a5.651,5.651,0,1,1,4,1.656,5.634,5.634,0,0,1-4-1.656l-43.48,43.478Zm0-194.424a5.651,5.651,0,1,1,4,1.656,5.635,5.635,0,0,1-4-1.656L0,343.632ZM0,241.9l49.735,49.735Zm31.651-58.779L0,214.771Zm77.995,0h0a5.651,5.651,0,1,1,5.652,5.652A5.653,5.653,0,0,1,109.646,183.119ZM71.213,140.166a5.635,5.635,0,0,1,1.656-4L38.433,101.733,0,140.166l38.433-38.433L0,63.3l38.433,38.433L111.3,28.864a5.651,5.651,0,0,1,0-7.993L90.428,0,111.3,20.871a5.652,5.652,0,1,1,0,7.993L38.433,101.733l34.436,34.436a5.652,5.652,0,1,1-1.656,4ZM32.78,38.433a5.652,5.652,0,1,1,5.652,5.652A5.633,5.633,0,0,1,32.78,38.433ZM0,0H0L34.437,34.437Z" transform="translate(976.89 14.5)" fill="none" stroke="#00b9ff" stroke-linejoin="round" stroke-width="2"/>
    </g>
    <g transform="matrix(1, 0, 0, 1, 0, 0)" filter="url(#Union_38)">
      <path id="Union_38-2" data-name="Union 38" d="M109.646,519.97a5.634,5.634,0,0,1,1.655-4L.209,404.88,0,405.089l.209-.209L0,404.672l.209.209L36.589,368.5h0l31.972-31.972a5.651,5.651,0,1,1,3.783,1.452,5.638,5.638,0,0,1-3.783-1.452L36.589,368.5h73.057a5.651,5.651,0,1,1,5.652,5.652,5.653,5.653,0,0,1-5.652-5.652H36.589L.209,404.88,111.3,515.973a5.651,5.651,0,1,1-1.655,4Zm1.656-93.216a5.651,5.651,0,1,1,4,1.656,5.634,5.634,0,0,1-4-1.656l-43.48,43.478Zm0-194.424a5.651,5.651,0,1,1,4,1.656,5.635,5.635,0,0,1-4-1.656L0,343.632ZM0,241.9l49.735,49.735Zm31.651-58.779L0,214.771Zm77.995,0h0a5.651,5.651,0,1,1,5.652,5.652A5.653,5.653,0,0,1,109.646,183.119ZM71.213,140.166a5.635,5.635,0,0,1,1.656-4L38.433,101.733,0,140.166l38.433-38.433L0,63.3l38.433,38.433L111.3,28.864a5.651,5.651,0,0,1,0-7.993L90.428,0,111.3,20.871a5.652,5.652,0,1,1,0,7.993L38.433,101.733l34.436,34.436a5.652,5.652,0,1,1-1.656,4ZM32.78,38.433a5.652,5.652,0,1,1,5.652,5.652A5.633,5.633,0,0,1,32.78,38.433ZM0,0H0L34.437,34.437Z" transform="translate(1420.44 -6.5)" fill="none" stroke="#f09" stroke-linejoin="round" stroke-width="2"/>
    </g>
    <g transform="matrix(1, 0, 0, 1, 0, 0)" filter="url(#Union_46)">
      <path id="Union_46-2" data-name="Union 46" d="M109.646,519.97a5.634,5.634,0,0,1,1.655-4L.209,404.88,0,405.089l.209-.209L0,404.672l.209.209L36.589,368.5h0l31.972-31.972a5.651,5.651,0,1,1,3.783,1.452,5.638,5.638,0,0,1-3.783-1.452L36.589,368.5h73.057a5.651,5.651,0,1,1,5.652,5.652,5.653,5.653,0,0,1-5.652-5.652H36.589L.209,404.88,111.3,515.973a5.651,5.651,0,1,1-1.655,4Zm1.656-93.216a5.651,5.651,0,1,1,4,1.656,5.634,5.634,0,0,1-4-1.656l-43.48,43.478Zm0-194.424a5.651,5.651,0,1,1,4,1.656,5.635,5.635,0,0,1-4-1.656L0,343.632ZM0,241.9l49.735,49.735Zm31.651-58.779L0,214.771Zm77.995,0h0a5.651,5.651,0,1,1,5.652,5.652A5.653,5.653,0,0,1,109.646,183.119ZM71.213,140.166a5.635,5.635,0,0,1,1.656-4L38.433,101.733,0,140.166l38.433-38.433L0,63.3l38.433,38.433L111.3,28.864a5.651,5.651,0,0,1,0-7.993L90.428,0,111.3,20.871a5.652,5.652,0,1,1,0,7.993L38.433,101.733l34.436,34.436a5.652,5.652,0,1,1-1.656,4ZM32.78,38.433a5.652,5.652,0,1,1,5.652,5.652A5.633,5.633,0,0,1,32.78,38.433ZM0,0H0L34.437,34.437Z" transform="translate(1420.44 -6.5)" fill="none" stroke="#f09" stroke-linejoin="round" stroke-width="2"/>
    </g>
    <g transform="matrix(1, 0, 0, 1, 0, 0)" filter="url(#Union_8)">
      <path id="Union_8-2" data-name="Union 8" d="M109.646,5.65a5.634,5.634,0,0,0,1.655,4L.209,120.74,0,120.531l.209.209L0,120.948l.209-.209,36.381,36.381h0l31.972,31.972a5.651,5.651,0,1,0,3.783-1.452,5.638,5.638,0,0,0-3.783,1.452L36.589,157.121h73.057a5.651,5.651,0,1,0,5.652-5.652,5.653,5.653,0,0,0-5.652,5.652H36.589L.209,120.74,111.3,9.647a5.651,5.651,0,1,0-1.655-4ZM111.3,98.866a5.651,5.651,0,1,0,4-1.656,5.634,5.634,0,0,0-4,1.656L67.821,55.388Zm0,194.424a5.651,5.651,0,1,0,4-1.656,5.635,5.635,0,0,0-4,1.656L0,181.988ZM0,283.721l49.735-49.735ZM31.651,342.5,0,310.849Zm77.995,0h0a5.651,5.651,0,1,0,5.652-5.652A5.653,5.653,0,0,0,109.646,342.5ZM71.213,385.454a5.635,5.635,0,0,0,1.656,4L38.433,423.887,0,385.454l38.433,38.433L0,462.32l38.433-38.433L111.3,496.756a5.651,5.651,0,0,0,0,7.993L90.428,525.62,111.3,504.749a5.652,5.652,0,1,0,0-7.993L38.433,423.887l34.436-34.436a5.652,5.652,0,1,0-1.656-4ZM32.78,487.187a5.652,5.652,0,1,0,5.652-5.652A5.633,5.633,0,0,0,32.78,487.187ZM0,525.62H0l34.437-34.437Z" transform="translate(232.22 526.12) rotate(180)" fill="none" stroke="#58ffb2" stroke-linejoin="round" stroke-width="2"/>
    </g>
    <g transform="matrix(1, 0, 0, 1, 0, 0)" filter="url(#Union_98)">
      <path id="Union_98-2" data-name="Union 98" d="M109.646,5.65a5.634,5.634,0,0,0,1.655,4L.209,120.74,0,120.531l.209.209L0,120.948l.209-.209,36.381,36.381h0l31.972,31.972a5.651,5.651,0,1,0,3.783-1.452,5.638,5.638,0,0,0-3.783,1.452L36.589,157.121h73.057a5.651,5.651,0,1,0,5.652-5.652,5.653,5.653,0,0,0-5.652,5.652H36.589L.209,120.74,111.3,9.647a5.651,5.651,0,1,0-1.655-4ZM111.3,98.866a5.651,5.651,0,1,0,4-1.656,5.634,5.634,0,0,0-4,1.656L67.821,55.388Zm0,194.424a5.651,5.651,0,1,0,4-1.656,5.635,5.635,0,0,0-4,1.656L0,181.988ZM0,283.721l49.735-49.735ZM31.651,342.5,0,310.849Zm77.995,0h0a5.651,5.651,0,1,0,5.652-5.652A5.653,5.653,0,0,0,109.646,342.5ZM71.213,385.454a5.635,5.635,0,0,0,1.656,4L38.433,423.887,0,385.454l38.433,38.433L0,462.32l38.433-38.433L111.3,496.756a5.651,5.651,0,0,0,0,7.993L90.428,525.62,111.3,504.749a5.652,5.652,0,1,0,0-7.993L38.433,423.887l34.436-34.436a5.652,5.652,0,1,0-1.656-4ZM32.78,487.187a5.652,5.652,0,1,0,5.652-5.652A5.633,5.633,0,0,0,32.78,487.187ZM0,525.62H0l34.437-34.437Z" transform="translate(942.22 540.12) rotate(180)" fill="none" stroke="#00b9ff" stroke-linejoin="round" stroke-width="2"/>
    </g>
    <g transform="matrix(1, 0, 0, 1, 0, 0)" filter="url(#Union_74)">
      <path id="Union_74-2" data-name="Union 74" d="M109.646,5.65a5.634,5.634,0,0,0,1.655,4L.209,120.74,0,120.531l.209.209L0,120.948l.209-.209,36.381,36.381h0l31.972,31.972a5.651,5.651,0,1,0,3.783-1.452,5.638,5.638,0,0,0-3.783,1.452L36.589,157.121h73.057a5.651,5.651,0,1,0,5.652-5.652,5.653,5.653,0,0,0-5.652,5.652H36.589L.209,120.74,111.3,9.647a5.651,5.651,0,1,0-1.655-4ZM111.3,98.866a5.651,5.651,0,1,0,4-1.656,5.634,5.634,0,0,0-4,1.656L67.821,55.388Zm0,194.424a5.651,5.651,0,1,0,4-1.656,5.635,5.635,0,0,0-4,1.656L0,181.988ZM0,283.721l49.735-49.735ZM31.651,342.5,0,310.849Zm77.995,0h0a5.651,5.651,0,1,0,5.652-5.652A5.653,5.653,0,0,0,109.646,342.5ZM71.213,385.454a5.635,5.635,0,0,0,1.656,4L38.433,423.887,0,385.454l38.433,38.433L0,462.32l38.433-38.433L111.3,496.756a5.651,5.651,0,0,0,0,7.993L90.428,525.62,111.3,504.749a5.652,5.652,0,1,0,0-7.993L38.433,423.887l34.436-34.436a5.652,5.652,0,1,0-1.656-4ZM32.78,487.187a5.652,5.652,0,1,0,5.652-5.652A5.633,5.633,0,0,0,32.78,487.187ZM0,525.62H0l34.437-34.437Z" transform="translate(232.22 526.12) rotate(180)" fill="none" stroke="#58ffb2" stroke-linejoin="round" stroke-width="2"/>
    </g>
    <g transform="matrix(1, 0, 0, 1, 0, 0)" filter="url(#Union_100)">
      <path id="Union_100-2" data-name="Union 100" d="M109.646,5.65a5.634,5.634,0,0,0,1.655,4L.209,120.74,0,120.531l.209.209L0,120.948l.209-.209,36.381,36.381h0l31.972,31.972a5.651,5.651,0,1,0,3.783-1.452,5.638,5.638,0,0,0-3.783,1.452L36.589,157.121h73.057a5.651,5.651,0,1,0,5.652-5.652,5.653,5.653,0,0,0-5.652,5.652H36.589L.209,120.74,111.3,9.647a5.651,5.651,0,1,0-1.655-4ZM111.3,98.866a5.651,5.651,0,1,0,4-1.656,5.634,5.634,0,0,0-4,1.656L67.821,55.388Zm0,194.424a5.651,5.651,0,1,0,4-1.656,5.635,5.635,0,0,0-4,1.656L0,181.988ZM0,283.721l49.735-49.735ZM31.651,342.5,0,310.849Zm77.995,0h0a5.651,5.651,0,1,0,5.652-5.652A5.653,5.653,0,0,0,109.646,342.5ZM71.213,385.454a5.635,5.635,0,0,0,1.656,4L38.433,423.887,0,385.454l38.433,38.433L0,462.32l38.433-38.433L111.3,496.756a5.651,5.651,0,0,0,0,7.993L90.428,525.62,111.3,504.749a5.652,5.652,0,1,0,0-7.993L38.433,423.887l34.436-34.436a5.652,5.652,0,1,0-1.656-4ZM32.78,487.187a5.652,5.652,0,1,0,5.652-5.652A5.633,5.633,0,0,0,32.78,487.187ZM0,525.62H0l34.437-34.437Z" transform="translate(942.22 540.12) rotate(180)" fill="none" stroke="#00b9ff" stroke-linejoin="round" stroke-width="2"/>
    </g>
    <g transform="matrix(1, 0, 0, 1, 0, 0)" filter="url(#Union_16)">
      <path id="Union_16-2" data-name="Union 16" d="M109.646,5.65a5.634,5.634,0,0,0,1.655,4L.209,120.74,0,120.531l.209.209L0,120.948l.209-.209,36.381,36.381h0l31.972,31.972a5.651,5.651,0,1,0,3.783-1.452,5.638,5.638,0,0,0-3.783,1.452L36.589,157.121h73.057a5.651,5.651,0,1,0,5.652-5.652,5.653,5.653,0,0,0-5.652,5.652H36.589L.209,120.74,111.3,9.647a5.651,5.651,0,1,0-1.655-4ZM111.3,98.866a5.651,5.651,0,1,0,4-1.656,5.634,5.634,0,0,0-4,1.656L67.821,55.388Zm0,194.424a5.651,5.651,0,1,0,4-1.656,5.635,5.635,0,0,0-4,1.656L0,181.988ZM0,283.721l49.735-49.735ZM31.651,342.5,0,310.849Zm77.995,0h0a5.651,5.651,0,1,0,5.652-5.652A5.653,5.653,0,0,0,109.646,342.5ZM71.213,385.454a5.635,5.635,0,0,0,1.656,4L38.433,423.887,0,385.454l38.433,38.433L0,462.32l38.433-38.433L111.3,496.756a5.651,5.651,0,0,0,0,7.993L90.428,525.62,111.3,504.749a5.652,5.652,0,1,0,0-7.993L38.433,423.887l34.436-34.436a5.652,5.652,0,1,0-1.656-4ZM32.78,487.187a5.652,5.652,0,1,0,5.652-5.652A5.633,5.633,0,0,0,32.78,487.187ZM0,525.62H0l34.437-34.437Z" transform="translate(1918.22 533.12) rotate(180)" fill="none" stroke="#f09" stroke-linejoin="round" stroke-width="2"/>
    </g>
    <g transform="matrix(1, 0, 0, 1, 0, 0)" filter="url(#Union_50)">
      <path id="Union_50-2" data-name="Union 50" d="M109.646,5.65a5.634,5.634,0,0,0,1.655,4L.209,120.74,0,120.531l.209.209L0,120.948l.209-.209,36.381,36.381h0l31.972,31.972a5.651,5.651,0,1,0,3.783-1.452,5.638,5.638,0,0,0-3.783,1.452L36.589,157.121h73.057a5.651,5.651,0,1,0,5.652-5.652,5.653,5.653,0,0,0-5.652,5.652H36.589L.209,120.74,111.3,9.647a5.651,5.651,0,1,0-1.655-4ZM111.3,98.866a5.651,5.651,0,1,0,4-1.656,5.634,5.634,0,0,0-4,1.656L67.821,55.388Zm0,194.424a5.651,5.651,0,1,0,4-1.656,5.635,5.635,0,0,0-4,1.656L0,181.988ZM0,283.721l49.735-49.735ZM31.651,342.5,0,310.849Zm77.995,0h0a5.651,5.651,0,1,0,5.652-5.652A5.653,5.653,0,0,0,109.646,342.5ZM71.213,385.454a5.635,5.635,0,0,0,1.656,4L38.433,423.887,0,385.454l38.433,38.433L0,462.32l38.433-38.433L111.3,496.756a5.651,5.651,0,0,0,0,7.993L90.428,525.62,111.3,504.749a5.652,5.652,0,1,0,0-7.993L38.433,423.887l34.436-34.436a5.652,5.652,0,1,0-1.656-4ZM32.78,487.187a5.652,5.652,0,1,0,5.652-5.652A5.633,5.633,0,0,0,32.78,487.187ZM0,525.62H0l34.437-34.437Z" transform="translate(1918.22 533.12) rotate(180)" fill="none" stroke="#f09" stroke-linejoin="round" stroke-width="2"/>
    </g>
    <g transform="matrix(1, 0, 0, 1, 0, 0)" filter="url(#Union_22)">
      <path id="Union_22-2" data-name="Union 22" d="M109.646,5.65a5.634,5.634,0,0,0,1.655,4L.209,120.74,0,120.531l.209.209L0,120.948l.209-.209,36.381,36.381h0l31.972,31.972a5.651,5.651,0,1,0,3.783-1.452,5.638,5.638,0,0,0-3.783,1.452L36.589,157.121h73.057a5.651,5.651,0,1,0,5.652-5.652,5.653,5.653,0,0,0-5.652,5.652H36.589L.209,120.74,111.3,9.647a5.651,5.651,0,1,0-1.655-4ZM111.3,98.866a5.651,5.651,0,1,0,4-1.656,5.634,5.634,0,0,0-4,1.656L67.821,55.388Zm0,194.424a5.651,5.651,0,1,0,4-1.656,5.635,5.635,0,0,0-4,1.656L0,181.988ZM0,283.721l49.735-49.735ZM31.651,342.5,0,310.849Zm77.995,0h0a5.651,5.651,0,1,0,5.652-5.652A5.653,5.653,0,0,0,109.646,342.5ZM71.213,385.454a5.635,5.635,0,0,0,1.656,4L38.433,423.887,0,385.454l38.433,38.433L0,462.32l38.433-38.433L111.3,496.756a5.651,5.651,0,0,0,0,7.993L90.428,525.62,111.3,504.749a5.652,5.652,0,1,0,0-7.993L38.433,423.887l34.436-34.436a5.652,5.652,0,1,0-1.656-4ZM32.78,487.187a5.652,5.652,0,1,0,5.652-5.652A5.633,5.633,0,0,0,32.78,487.187ZM0,525.62H0l34.437-34.437Z" transform="translate(498.62 526.12) rotate(180)" fill="none" stroke="#58ffb2" stroke-linejoin="round" stroke-width="2"/>
    </g>
    <g transform="matrix(1, 0, 0, 1, 0, 0)" filter="url(#Union_102)">
      <path id="Union_102-2" data-name="Union 102" d="M109.646,5.65a5.634,5.634,0,0,0,1.655,4L.209,120.74,0,120.531l.209.209L0,120.948l.209-.209,36.381,36.381h0l31.972,31.972a5.651,5.651,0,1,0,3.783-1.452,5.638,5.638,0,0,0-3.783,1.452L36.589,157.121h73.057a5.651,5.651,0,1,0,5.652-5.652,5.653,5.653,0,0,0-5.652,5.652H36.589L.209,120.74,111.3,9.647a5.651,5.651,0,1,0-1.655-4ZM111.3,98.866a5.651,5.651,0,1,0,4-1.656,5.634,5.634,0,0,0-4,1.656L67.821,55.388Zm0,194.424a5.651,5.651,0,1,0,4-1.656,5.635,5.635,0,0,0-4,1.656L0,181.988ZM0,283.721l49.735-49.735ZM31.651,342.5,0,310.849Zm77.995,0h0a5.651,5.651,0,1,0,5.652-5.652A5.653,5.653,0,0,0,109.646,342.5ZM71.213,385.454a5.635,5.635,0,0,0,1.656,4L38.433,423.887,0,385.454l38.433,38.433L0,462.32l38.433-38.433L111.3,496.756a5.651,5.651,0,0,0,0,7.993L90.428,525.62,111.3,504.749a5.652,5.652,0,1,0,0-7.993L38.433,423.887l34.436-34.436a5.652,5.652,0,1,0-1.656-4ZM32.78,487.187a5.652,5.652,0,1,0,5.652-5.652A5.633,5.633,0,0,0,32.78,487.187ZM0,525.62H0l34.437-34.437Z" transform="translate(1208.62 540.12) rotate(180)" fill="none" stroke="#00b9ff" stroke-linejoin="round" stroke-width="2"/>
    </g>
    <g transform="matrix(1, 0, 0, 1, 0, 0)" filter="url(#Union_52)">
      <path id="Union_52-2" data-name="Union 52" d="M109.646,5.65a5.634,5.634,0,0,0,1.655,4L.209,120.74,0,120.531l.209.209L0,120.948l.209-.209,36.381,36.381h0l31.972,31.972a5.651,5.651,0,1,0,3.783-1.452,5.638,5.638,0,0,0-3.783,1.452L36.589,157.121h73.057a5.651,5.651,0,1,0,5.652-5.652,5.653,5.653,0,0,0-5.652,5.652H36.589L.209,120.74,111.3,9.647a5.651,5.651,0,1,0-1.655-4ZM111.3,98.866a5.651,5.651,0,1,0,4-1.656,5.634,5.634,0,0,0-4,1.656L67.821,55.388Zm0,194.424a5.651,5.651,0,1,0,4-1.656,5.635,5.635,0,0,0-4,1.656L0,181.988ZM0,283.721l49.735-49.735ZM31.651,342.5,0,310.849Zm77.995,0h0a5.651,5.651,0,1,0,5.652-5.652A5.653,5.653,0,0,0,109.646,342.5ZM71.213,385.454a5.635,5.635,0,0,0,1.656,4L38.433,423.887,0,385.454l38.433,38.433L0,462.32l38.433-38.433L111.3,496.756a5.651,5.651,0,0,0,0,7.993L90.428,525.62,111.3,504.749a5.652,5.652,0,1,0,0-7.993L38.433,423.887l34.436-34.436a5.652,5.652,0,1,0-1.656-4ZM32.78,487.187a5.652,5.652,0,1,0,5.652-5.652A5.633,5.633,0,0,0,32.78,487.187ZM0,525.62H0l34.437-34.437Z" transform="translate(498.62 526.12) rotate(180)" fill="none" stroke="#58ffb2" stroke-linejoin="round" stroke-width="2"/>
    </g>
    <g transform="matrix(1, 0, 0, 1, 0, 0)" filter="url(#Union_104)">
      <path id="Union_104-2" data-name="Union 104" d="M109.646,5.65a5.634,5.634,0,0,0,1.655,4L.209,120.74,0,120.531l.209.209L0,120.948l.209-.209,36.381,36.381h0l31.972,31.972a5.651,5.651,0,1,0,3.783-1.452,5.638,5.638,0,0,0-3.783,1.452L36.589,157.121h73.057a5.651,5.651,0,1,0,5.652-5.652,5.653,5.653,0,0,0-5.652,5.652H36.589L.209,120.74,111.3,9.647a5.651,5.651,0,1,0-1.655-4ZM111.3,98.866a5.651,5.651,0,1,0,4-1.656,5.634,5.634,0,0,0-4,1.656L67.821,55.388Zm0,194.424a5.651,5.651,0,1,0,4-1.656,5.635,5.635,0,0,0-4,1.656L0,181.988ZM0,283.721l49.735-49.735ZM31.651,342.5,0,310.849Zm77.995,0h0a5.651,5.651,0,1,0,5.652-5.652A5.653,5.653,0,0,0,109.646,342.5ZM71.213,385.454a5.635,5.635,0,0,0,1.656,4L38.433,423.887,0,385.454l38.433,38.433L0,462.32l38.433-38.433L111.3,496.756a5.651,5.651,0,0,0,0,7.993L90.428,525.62,111.3,504.749a5.652,5.652,0,1,0,0-7.993L38.433,423.887l34.436-34.436a5.652,5.652,0,1,0-1.656-4ZM32.78,487.187a5.652,5.652,0,1,0,5.652-5.652A5.633,5.633,0,0,0,32.78,487.187ZM0,525.62H0l34.437-34.437Z" transform="translate(1208.62 540.12) rotate(180)" fill="none" stroke="#00b9ff" stroke-linejoin="round" stroke-width="2"/>
    </g>
    <g transform="matrix(1, 0, 0, 1, 0, 0)" filter="url(#Union_40)">
      <path id="Union_40-2" data-name="Union 40" d="M109.646,5.65a5.634,5.634,0,0,0,1.655,4L.209,120.74,0,120.531l.209.209L0,120.948l.209-.209,36.381,36.381h0l31.972,31.972a5.651,5.651,0,1,0,3.783-1.452,5.638,5.638,0,0,0-3.783,1.452L36.589,157.121h73.057a5.651,5.651,0,1,0,5.652-5.652,5.653,5.653,0,0,0-5.652,5.652H36.589L.209,120.74,111.3,9.647a5.651,5.651,0,1,0-1.655-4ZM111.3,98.866a5.651,5.651,0,1,0,4-1.656,5.634,5.634,0,0,0-4,1.656L67.821,55.388Zm0,194.424a5.651,5.651,0,1,0,4-1.656,5.635,5.635,0,0,0-4,1.656L0,181.988ZM0,283.721l49.735-49.735ZM31.651,342.5,0,310.849Zm77.995,0h0a5.651,5.651,0,1,0,5.652-5.652A5.653,5.653,0,0,0,109.646,342.5ZM71.213,385.454a5.635,5.635,0,0,0,1.656,4L38.433,423.887,0,385.454l38.433,38.433L0,462.32l38.433-38.433L111.3,496.756a5.651,5.651,0,0,0,0,7.993L90.428,525.62,111.3,504.749a5.652,5.652,0,1,0,0-7.993L38.433,423.887l34.436-34.436a5.652,5.652,0,1,0-1.656-4ZM32.78,487.187a5.652,5.652,0,1,0,5.652-5.652A5.633,5.633,0,0,0,32.78,487.187ZM0,525.62H0l34.437-34.437Z" transform="translate(1652.17 519.12) rotate(180)" fill="none" stroke="#f09" stroke-linejoin="round" stroke-width="2"/>
    </g>
    <g transform="matrix(1, 0, 0, 1, 0, 0)" filter="url(#Union_54)">
      <path id="Union_54-2" data-name="Union 54" d="M109.646,5.65a5.634,5.634,0,0,0,1.655,4L.209,120.74,0,120.531l.209.209L0,120.948l.209-.209,36.381,36.381h0l31.972,31.972a5.651,5.651,0,1,0,3.783-1.452,5.638,5.638,0,0,0-3.783,1.452L36.589,157.121h73.057a5.651,5.651,0,1,0,5.652-5.652,5.653,5.653,0,0,0-5.652,5.652H36.589L.209,120.74,111.3,9.647a5.651,5.651,0,1,0-1.655-4ZM111.3,98.866a5.651,5.651,0,1,0,4-1.656,5.634,5.634,0,0,0-4,1.656L67.821,55.388Zm0,194.424a5.651,5.651,0,1,0,4-1.656,5.635,5.635,0,0,0-4,1.656L0,181.988ZM0,283.721l49.735-49.735ZM31.651,342.5,0,310.849Zm77.995,0h0a5.651,5.651,0,1,0,5.652-5.652A5.653,5.653,0,0,0,109.646,342.5ZM71.213,385.454a5.635,5.635,0,0,0,1.656,4L38.433,423.887,0,385.454l38.433,38.433L0,462.32l38.433-38.433L111.3,496.756a5.651,5.651,0,0,0,0,7.993L90.428,525.62,111.3,504.749a5.652,5.652,0,1,0,0-7.993L38.433,423.887l34.436-34.436a5.652,5.652,0,1,0-1.656-4ZM32.78,487.187a5.652,5.652,0,1,0,5.652-5.652A5.633,5.633,0,0,0,32.78,487.187ZM0,525.62H0l34.437-34.437Z" transform="translate(1652.17 519.12) rotate(180)" fill="none" stroke="#f09" stroke-linejoin="round" stroke-width="2"/>
    </g>
    <g transform="matrix(1, 0, 0, 1, 0, 0)" filter="url(#Union_4)">
      <path id="Union_4-2" data-name="Union 4" d="M109.646,519.97a5.634,5.634,0,0,1,1.655-4L.209,404.88,0,405.089l.209-.209L0,404.672l.209.209L36.589,368.5h0l31.972-31.972a5.651,5.651,0,1,1,3.783,1.452,5.638,5.638,0,0,1-3.783-1.452L36.589,368.5h73.057a5.651,5.651,0,1,1,5.652,5.652,5.653,5.653,0,0,1-5.652-5.652H36.589L.209,404.88,111.3,515.973a5.651,5.651,0,1,1-1.655,4Zm1.656-93.216a5.651,5.651,0,1,1,4,1.656,5.634,5.634,0,0,1-4-1.656l-43.48,43.478Zm0-194.424a5.651,5.651,0,1,1,4,1.656,5.635,5.635,0,0,1-4-1.656L0,343.632ZM0,241.9l49.735,49.735Zm31.651-58.779L0,214.771Zm77.995,0h0a5.651,5.651,0,1,1,5.652,5.652A5.653,5.653,0,0,1,109.646,183.119ZM71.213,140.166a5.635,5.635,0,0,1,1.656-4L38.433,101.733,0,140.166l38.433-38.433L0,63.3l38.433,38.433L111.3,28.864a5.651,5.651,0,0,1,0-7.993L90.428,0,111.3,20.871a5.652,5.652,0,1,1,0,7.993L38.433,101.733l34.436,34.436a5.652,5.652,0,1,1-1.656,4ZM32.78,38.433a5.652,5.652,0,1,1,5.652,5.652A5.633,5.633,0,0,1,32.78,38.433ZM0,0H0L34.437,34.437Z" transform="translate(0.5 554.38)" fill="none" stroke="#58ffb2" stroke-linejoin="round" stroke-width="2"/>
    </g>
    <g transform="matrix(1, 0, 0, 1, 0, 0)" filter="url(#Union_110)">
      <path id="Union_110-2" data-name="Union 110" d="M109.646,519.97a5.634,5.634,0,0,1,1.655-4L.209,404.88,0,405.089l.209-.209L0,404.672l.209.209L36.589,368.5h0l31.972-31.972a5.651,5.651,0,1,1,3.783,1.452,5.638,5.638,0,0,1-3.783-1.452L36.589,368.5h73.057a5.651,5.651,0,1,1,5.652,5.652,5.653,5.653,0,0,1-5.652-5.652H36.589L.209,404.88,111.3,515.973a5.651,5.651,0,1,1-1.655,4Zm1.656-93.216a5.651,5.651,0,1,1,4,1.656,5.634,5.634,0,0,1-4-1.656l-43.48,43.478Zm0-194.424a5.651,5.651,0,1,1,4,1.656,5.635,5.635,0,0,1-4-1.656L0,343.632ZM0,241.9l49.735,49.735Zm31.651-58.779L0,214.771Zm77.995,0h0a5.651,5.651,0,1,1,5.652,5.652A5.653,5.653,0,0,1,109.646,183.119ZM71.213,140.166a5.635,5.635,0,0,1,1.656-4L38.433,101.733,0,140.166l38.433-38.433L0,63.3l38.433,38.433L111.3,28.864a5.651,5.651,0,0,1,0-7.993L90.428,0,111.3,20.871a5.652,5.652,0,1,1,0,7.993L38.433,101.733l34.436,34.436a5.652,5.652,0,1,1-1.656,4ZM32.78,38.433a5.652,5.652,0,1,1,5.652,5.652A5.633,5.633,0,0,1,32.78,38.433ZM0,0H0L34.437,34.437Z" transform="translate(710.5 568.38)" fill="none" stroke="#00b9ff" stroke-linejoin="round" stroke-width="2"/>
    </g>
    <g transform="matrix(1, 0, 0, 1, 0, 0)" filter="url(#Union_76)">
      <path id="Union_76-2" data-name="Union 76" d="M109.646,519.97a5.634,5.634,0,0,1,1.655-4L.209,404.88,0,405.089l.209-.209L0,404.672l.209.209L36.589,368.5h0l31.972-31.972a5.651,5.651,0,1,1,3.783,1.452,5.638,5.638,0,0,1-3.783-1.452L36.589,368.5h73.057a5.651,5.651,0,1,1,5.652,5.652,5.653,5.653,0,0,1-5.652-5.652H36.589L.209,404.88,111.3,515.973a5.651,5.651,0,1,1-1.655,4Zm1.656-93.216a5.651,5.651,0,1,1,4,1.656,5.634,5.634,0,0,1-4-1.656l-43.48,43.478Zm0-194.424a5.651,5.651,0,1,1,4,1.656,5.635,5.635,0,0,1-4-1.656L0,343.632ZM0,241.9l49.735,49.735Zm31.651-58.779L0,214.771Zm77.995,0h0a5.651,5.651,0,1,1,5.652,5.652A5.653,5.653,0,0,1,109.646,183.119ZM71.213,140.166a5.635,5.635,0,0,1,1.656-4L38.433,101.733,0,140.166l38.433-38.433L0,63.3l38.433,38.433L111.3,28.864a5.651,5.651,0,0,1,0-7.993L90.428,0,111.3,20.871a5.652,5.652,0,1,1,0,7.993L38.433,101.733l34.436,34.436a5.652,5.652,0,1,1-1.656,4ZM32.78,38.433a5.652,5.652,0,1,1,5.652,5.652A5.633,5.633,0,0,1,32.78,38.433ZM0,0H0L34.437,34.437Z" transform="translate(0.5 554.38)" fill="none" stroke="#58ffb2" stroke-linejoin="round" stroke-width="2"/>
    </g>
    <g transform="matrix(1, 0, 0, 1, 0, 0)" filter="url(#Union_112)">
      <path id="Union_112-2" data-name="Union 112" d="M109.646,519.97a5.634,5.634,0,0,1,1.655-4L.209,404.88,0,405.089l.209-.209L0,404.672l.209.209L36.589,368.5h0l31.972-31.972a5.651,5.651,0,1,1,3.783,1.452,5.638,5.638,0,0,1-3.783-1.452L36.589,368.5h73.057a5.651,5.651,0,1,1,5.652,5.652,5.653,5.653,0,0,1-5.652-5.652H36.589L.209,404.88,111.3,515.973a5.651,5.651,0,1,1-1.655,4Zm1.656-93.216a5.651,5.651,0,1,1,4,1.656,5.634,5.634,0,0,1-4-1.656l-43.48,43.478Zm0-194.424a5.651,5.651,0,1,1,4,1.656,5.635,5.635,0,0,1-4-1.656L0,343.632ZM0,241.9l49.735,49.735Zm31.651-58.779L0,214.771Zm77.995,0h0a5.651,5.651,0,1,1,5.652,5.652A5.653,5.653,0,0,1,109.646,183.119ZM71.213,140.166a5.635,5.635,0,0,1,1.656-4L38.433,101.733,0,140.166l38.433-38.433L0,63.3l38.433,38.433L111.3,28.864a5.651,5.651,0,0,1,0-7.993L90.428,0,111.3,20.871a5.652,5.652,0,1,1,0,7.993L38.433,101.733l34.436,34.436a5.652,5.652,0,1,1-1.656,4ZM32.78,38.433a5.652,5.652,0,1,1,5.652,5.652A5.633,5.633,0,0,1,32.78,38.433ZM0,0H0L34.437,34.437Z" transform="translate(710.5 568.38)" fill="none" stroke="#00b9ff" stroke-linejoin="round" stroke-width="2"/>
    </g>
    <g transform="matrix(1, 0, 0, 1, 0, 0)" filter="url(#Union_12)">
      <path id="Union_12-2" data-name="Union 12" d="M109.646,519.97a5.634,5.634,0,0,1,1.655-4L.209,404.88,0,405.089l.209-.209L0,404.672l.209.209L36.589,368.5h0l31.972-31.972a5.651,5.651,0,1,1,3.783,1.452,5.638,5.638,0,0,1-3.783-1.452L36.589,368.5h73.057a5.651,5.651,0,1,1,5.652,5.652,5.653,5.653,0,0,1-5.652-5.652H36.589L.209,404.88,111.3,515.973a5.651,5.651,0,1,1-1.655,4Zm1.656-93.216a5.651,5.651,0,1,1,4,1.656,5.634,5.634,0,0,1-4-1.656l-43.48,43.478Zm0-194.424a5.651,5.651,0,1,1,4,1.656,5.635,5.635,0,0,1-4-1.656L0,343.632ZM0,241.9l49.735,49.735Zm31.651-58.779L0,214.771Zm77.995,0h0a5.651,5.651,0,1,1,5.652,5.652A5.653,5.653,0,0,1,109.646,183.119ZM71.213,140.166a5.635,5.635,0,0,1,1.656-4L38.433,101.733,0,140.166l38.433-38.433L0,63.3l38.433,38.433L111.3,28.864a5.651,5.651,0,0,1,0-7.993L90.428,0,111.3,20.871a5.652,5.652,0,1,1,0,7.993L38.433,101.733l34.436,34.436a5.652,5.652,0,1,1-1.656,4ZM32.78,38.433a5.652,5.652,0,1,1,5.652,5.652A5.633,5.633,0,0,1,32.78,38.433ZM0,0H0L34.437,34.437Z" transform="translate(1686.5 561.38)" fill="none" stroke="#f09" stroke-linejoin="round" stroke-width="2"/>
    </g>
    <g transform="matrix(1, 0, 0, 1, 0, 0)" filter="url(#Union_58)">
      <path id="Union_58-2" data-name="Union 58" d="M109.646,519.97a5.634,5.634,0,0,1,1.655-4L.209,404.88,0,405.089l.209-.209L0,404.672l.209.209L36.589,368.5h0l31.972-31.972a5.651,5.651,0,1,1,3.783,1.452,5.638,5.638,0,0,1-3.783-1.452L36.589,368.5h73.057a5.651,5.651,0,1,1,5.652,5.652,5.653,5.653,0,0,1-5.652-5.652H36.589L.209,404.88,111.3,515.973a5.651,5.651,0,1,1-1.655,4Zm1.656-93.216a5.651,5.651,0,1,1,4,1.656,5.634,5.634,0,0,1-4-1.656l-43.48,43.478Zm0-194.424a5.651,5.651,0,1,1,4,1.656,5.635,5.635,0,0,1-4-1.656L0,343.632ZM0,241.9l49.735,49.735Zm31.651-58.779L0,214.771Zm77.995,0h0a5.651,5.651,0,1,1,5.652,5.652A5.653,5.653,0,0,1,109.646,183.119ZM71.213,140.166a5.635,5.635,0,0,1,1.656-4L38.433,101.733,0,140.166l38.433-38.433L0,63.3l38.433,38.433L111.3,28.864a5.651,5.651,0,0,1,0-7.993L90.428,0,111.3,20.871a5.652,5.652,0,1,1,0,7.993L38.433,101.733l34.436,34.436a5.652,5.652,0,1,1-1.656,4ZM32.78,38.433a5.652,5.652,0,1,1,5.652,5.652A5.633,5.633,0,0,1,32.78,38.433ZM0,0H0L34.437,34.437Z" transform="translate(1686.5 561.38)" fill="none" stroke="#f09" stroke-linejoin="round" stroke-width="2"/>
    </g>
    <g transform="matrix(1, 0, 0, 1, 0, 0)" filter="url(#Union_20)">
      <path id="Union_20-2" data-name="Union 20" d="M109.646,519.97a5.634,5.634,0,0,1,1.655-4L.209,404.88,0,405.089l.209-.209L0,404.672l.209.209L36.589,368.5h0l31.972-31.972a5.651,5.651,0,1,1,3.783,1.452,5.638,5.638,0,0,1-3.783-1.452L36.589,368.5h73.057a5.651,5.651,0,1,1,5.652,5.652,5.653,5.653,0,0,1-5.652-5.652H36.589L.209,404.88,111.3,515.973a5.651,5.651,0,1,1-1.655,4Zm1.656-93.216a5.651,5.651,0,1,1,4,1.656,5.634,5.634,0,0,1-4-1.656l-43.48,43.478Zm0-194.424a5.651,5.651,0,1,1,4,1.656,5.635,5.635,0,0,1-4-1.656L0,343.632ZM0,241.9l49.735,49.735Zm31.651-58.779L0,214.771Zm77.995,0h0a5.651,5.651,0,1,1,5.652,5.652A5.653,5.653,0,0,1,109.646,183.119ZM71.213,140.166a5.635,5.635,0,0,1,1.656-4L38.433,101.733,0,140.166l38.433-38.433L0,63.3l38.433,38.433L111.3,28.864a5.651,5.651,0,0,1,0-7.993L90.428,0,111.3,20.871a5.652,5.652,0,1,1,0,7.993L38.433,101.733l34.436,34.436a5.652,5.652,0,1,1-1.656,4ZM32.78,38.433a5.652,5.652,0,1,1,5.652,5.652A5.633,5.633,0,0,1,32.78,38.433ZM0,0H0L34.437,34.437Z" transform="translate(266.89 554.38)" fill="none" stroke="#58ffb2" stroke-linejoin="round" stroke-width="2"/>
    </g>
    <g transform="matrix(1, 0, 0, 1, 0, 0)" filter="url(#Union_86)">
      <path id="Union_86-2" data-name="Union 86" d="M109.646,519.97a5.634,5.634,0,0,1,1.655-4L.209,404.88,0,405.089l.209-.209L0,404.672l.209.209L36.589,368.5h0l31.972-31.972a5.651,5.651,0,1,1,3.783,1.452,5.638,5.638,0,0,1-3.783-1.452L36.589,368.5h73.057a5.651,5.651,0,1,1,5.652,5.652,5.653,5.653,0,0,1-5.652-5.652H36.589L.209,404.88,111.3,515.973a5.651,5.651,0,1,1-1.655,4Zm1.656-93.216a5.651,5.651,0,1,1,4,1.656,5.634,5.634,0,0,1-4-1.656l-43.48,43.478Zm0-194.424a5.651,5.651,0,1,1,4,1.656,5.635,5.635,0,0,1-4-1.656L0,343.632ZM0,241.9l49.735,49.735Zm31.651-58.779L0,214.771Zm77.995,0h0a5.651,5.651,0,1,1,5.652,5.652A5.653,5.653,0,0,1,109.646,183.119ZM71.213,140.166a5.635,5.635,0,0,1,1.656-4L38.433,101.733,0,140.166l38.433-38.433L0,63.3l38.433,38.433L111.3,28.864a5.651,5.651,0,0,1,0-7.993L90.428,0,111.3,20.871a5.652,5.652,0,1,1,0,7.993L38.433,101.733l34.436,34.436a5.652,5.652,0,1,1-1.656,4ZM32.78,38.433a5.652,5.652,0,1,1,5.652,5.652A5.633,5.633,0,0,1,32.78,38.433ZM0,0H0L34.437,34.437Z" transform="translate(976.89 568.38)" fill="none" stroke="#00b9ff" stroke-linejoin="round" stroke-width="2"/>
    </g>
    <g transform="matrix(1, 0, 0, 1, 0, 0)" filter="url(#Union_78)">
      <path id="Union_78-2" data-name="Union 78" d="M109.646,519.97a5.634,5.634,0,0,1,1.655-4L.209,404.88,0,405.089l.209-.209L0,404.672l.209.209L36.589,368.5h0l31.972-31.972a5.651,5.651,0,1,1,3.783,1.452,5.638,5.638,0,0,1-3.783-1.452L36.589,368.5h73.057a5.651,5.651,0,1,1,5.652,5.652,5.653,5.653,0,0,1-5.652-5.652H36.589L.209,404.88,111.3,515.973a5.651,5.651,0,1,1-1.655,4Zm1.656-93.216a5.651,5.651,0,1,1,4,1.656,5.634,5.634,0,0,1-4-1.656l-43.48,43.478Zm0-194.424a5.651,5.651,0,1,1,4,1.656,5.635,5.635,0,0,1-4-1.656L0,343.632ZM0,241.9l49.735,49.735Zm31.651-58.779L0,214.771Zm77.995,0h0a5.651,5.651,0,1,1,5.652,5.652A5.653,5.653,0,0,1,109.646,183.119ZM71.213,140.166a5.635,5.635,0,0,1,1.656-4L38.433,101.733,0,140.166l38.433-38.433L0,63.3l38.433,38.433L111.3,28.864a5.651,5.651,0,0,1,0-7.993L90.428,0,111.3,20.871a5.652,5.652,0,1,1,0,7.993L38.433,101.733l34.436,34.436a5.652,5.652,0,1,1-1.656,4ZM32.78,38.433a5.652,5.652,0,1,1,5.652,5.652A5.633,5.633,0,0,1,32.78,38.433ZM0,0H0L34.437,34.437Z" transform="translate(266.89 554.38)" fill="none" stroke="#58ffb2" stroke-linejoin="round" stroke-width="2"/>
    </g>
    <g transform="matrix(1, 0, 0, 1, 0, 0)" filter="url(#Union_88)">
      <path id="Union_88-2" data-name="Union 88" d="M109.646,519.97a5.634,5.634,0,0,1,1.655-4L.209,404.88,0,405.089l.209-.209L0,404.672l.209.209L36.589,368.5h0l31.972-31.972a5.651,5.651,0,1,1,3.783,1.452,5.638,5.638,0,0,1-3.783-1.452L36.589,368.5h73.057a5.651,5.651,0,1,1,5.652,5.652,5.653,5.653,0,0,1-5.652-5.652H36.589L.209,404.88,111.3,515.973a5.651,5.651,0,1,1-1.655,4Zm1.656-93.216a5.651,5.651,0,1,1,4,1.656,5.634,5.634,0,0,1-4-1.656l-43.48,43.478Zm0-194.424a5.651,5.651,0,1,1,4,1.656,5.635,5.635,0,0,1-4-1.656L0,343.632ZM0,241.9l49.735,49.735Zm31.651-58.779L0,214.771Zm77.995,0h0a5.651,5.651,0,1,1,5.652,5.652A5.653,5.653,0,0,1,109.646,183.119ZM71.213,140.166a5.635,5.635,0,0,1,1.656-4L38.433,101.733,0,140.166l38.433-38.433L0,63.3l38.433,38.433L111.3,28.864a5.651,5.651,0,0,1,0-7.993L90.428,0,111.3,20.871a5.652,5.652,0,1,1,0,7.993L38.433,101.733l34.436,34.436a5.652,5.652,0,1,1-1.656,4ZM32.78,38.433a5.652,5.652,0,1,1,5.652,5.652A5.633,5.633,0,0,1,32.78,38.433ZM0,0H0L34.437,34.437Z" transform="translate(976.89 568.38)" fill="none" stroke="#00b9ff" stroke-linejoin="round" stroke-width="2"/>
    </g>
    <g transform="matrix(1, 0, 0, 1, 0, 0)" filter="url(#Union_36)">
      <path id="Union_36-2" data-name="Union 36" d="M109.646,519.97a5.634,5.634,0,0,1,1.655-4L.209,404.88,0,405.089l.209-.209L0,404.672l.209.209L36.589,368.5h0l31.972-31.972a5.651,5.651,0,1,1,3.783,1.452,5.638,5.638,0,0,1-3.783-1.452L36.589,368.5h73.057a5.651,5.651,0,1,1,5.652,5.652,5.653,5.653,0,0,1-5.652-5.652H36.589L.209,404.88,111.3,515.973a5.651,5.651,0,1,1-1.655,4Zm1.656-93.216a5.651,5.651,0,1,1,4,1.656,5.634,5.634,0,0,1-4-1.656l-43.48,43.478Zm0-194.424a5.651,5.651,0,1,1,4,1.656,5.635,5.635,0,0,1-4-1.656L0,343.632ZM0,241.9l49.735,49.735Zm31.651-58.779L0,214.771Zm77.995,0h0a5.651,5.651,0,1,1,5.652,5.652A5.653,5.653,0,0,1,109.646,183.119ZM71.213,140.166a5.635,5.635,0,0,1,1.656-4L38.433,101.733,0,140.166l38.433-38.433L0,63.3l38.433,38.433L111.3,28.864a5.651,5.651,0,0,1,0-7.993L90.428,0,111.3,20.871a5.652,5.652,0,1,1,0,7.993L38.433,101.733l34.436,34.436a5.652,5.652,0,1,1-1.656,4ZM32.78,38.433a5.652,5.652,0,1,1,5.652,5.652A5.633,5.633,0,0,1,32.78,38.433ZM0,0H0L34.437,34.437Z" transform="translate(1420.44 547.38)" fill="none" stroke="#f09" stroke-linejoin="round" stroke-width="2"/>
    </g>
    <g transform="matrix(1, 0, 0, 1, 0, 0)" filter="url(#Union_60)">
      <path id="Union_60-2" data-name="Union 60" d="M109.646,519.97a5.634,5.634,0,0,1,1.655-4L.209,404.88,0,405.089l.209-.209L0,404.672l.209.209L36.589,368.5h0l31.972-31.972a5.651,5.651,0,1,1,3.783,1.452,5.638,5.638,0,0,1-3.783-1.452L36.589,368.5h73.057a5.651,5.651,0,1,1,5.652,5.652,5.653,5.653,0,0,1-5.652-5.652H36.589L.209,404.88,111.3,515.973a5.651,5.651,0,1,1-1.655,4Zm1.656-93.216a5.651,5.651,0,1,1,4,1.656,5.634,5.634,0,0,1-4-1.656l-43.48,43.478Zm0-194.424a5.651,5.651,0,1,1,4,1.656,5.635,5.635,0,0,1-4-1.656L0,343.632ZM0,241.9l49.735,49.735Zm31.651-58.779L0,214.771Zm77.995,0h0a5.651,5.651,0,1,1,5.652,5.652A5.653,5.653,0,0,1,109.646,183.119ZM71.213,140.166a5.635,5.635,0,0,1,1.656-4L38.433,101.733,0,140.166l38.433-38.433L0,63.3l38.433,38.433L111.3,28.864a5.651,5.651,0,0,1,0-7.993L90.428,0,111.3,20.871a5.652,5.652,0,1,1,0,7.993L38.433,101.733l34.436,34.436a5.652,5.652,0,1,1-1.656,4ZM32.78,38.433a5.652,5.652,0,1,1,5.652,5.652A5.633,5.633,0,0,1,32.78,38.433ZM0,0H0L34.437,34.437Z" transform="translate(1420.44 547.38)" fill="none" stroke="#f09" stroke-linejoin="round" stroke-width="2"/>
    </g>
    <g transform="matrix(1, 0, 0, 1, 0, 0)" filter="url(#Union_6)">
      <path id="Union_6-2" data-name="Union 6" d="M109.646,5.65a5.634,5.634,0,0,0,1.655,4L.209,120.74,0,120.531l.209.209L0,120.948l.209-.209,36.381,36.381h0l31.972,31.972a5.651,5.651,0,1,0,3.783-1.452,5.638,5.638,0,0,0-3.783,1.452L36.589,157.121h73.057a5.651,5.651,0,1,0,5.652-5.652,5.653,5.653,0,0,0-5.652,5.652H36.589L.209,120.74,111.3,9.647a5.651,5.651,0,1,0-1.655-4ZM111.3,98.866a5.651,5.651,0,1,0,4-1.656,5.634,5.634,0,0,0-4,1.656L67.821,55.388Zm0,194.424a5.651,5.651,0,1,0,4-1.656,5.635,5.635,0,0,0-4,1.656L0,181.988ZM0,283.721l49.735-49.735ZM31.651,342.5,0,310.849Zm77.995,0h0a5.651,5.651,0,1,0,5.652-5.652A5.653,5.653,0,0,0,109.646,342.5ZM71.213,385.454a5.635,5.635,0,0,0,1.656,4L38.433,423.887,0,385.454l38.433,38.433L0,462.32l38.433-38.433L111.3,496.756a5.651,5.651,0,0,0,0,7.993L90.428,525.62,111.3,504.749a5.652,5.652,0,1,0,0-7.993L38.433,423.887l34.436-34.436a5.652,5.652,0,1,0-1.656-4ZM32.78,487.187a5.652,5.652,0,1,0,5.652-5.652A5.633,5.633,0,0,0,32.78,487.187ZM0,525.62H0l34.437-34.437Z" transform="translate(232.22 1080) rotate(180)" fill="none" stroke="#58ffb2" stroke-linejoin="round" stroke-width="2"/>
    </g>
    <g transform="matrix(1, 0, 0, 1, 0, 0)" filter="url(#Union_90)">
      <path id="Union_90-2" data-name="Union 90" d="M109.646,5.65a5.634,5.634,0,0,0,1.655,4L.209,120.74,0,120.531l.209.209L0,120.948l.209-.209,36.381,36.381h0l31.972,31.972a5.651,5.651,0,1,0,3.783-1.452,5.638,5.638,0,0,0-3.783,1.452L36.589,157.121h73.057a5.651,5.651,0,1,0,5.652-5.652,5.653,5.653,0,0,0-5.652,5.652H36.589L.209,120.74,111.3,9.647a5.651,5.651,0,1,0-1.655-4ZM111.3,98.866a5.651,5.651,0,1,0,4-1.656,5.634,5.634,0,0,0-4,1.656L67.821,55.388Zm0,194.424a5.651,5.651,0,1,0,4-1.656,5.635,5.635,0,0,0-4,1.656L0,181.988ZM0,283.721l49.735-49.735ZM31.651,342.5,0,310.849Zm77.995,0h0a5.651,5.651,0,1,0,5.652-5.652A5.653,5.653,0,0,0,109.646,342.5ZM71.213,385.454a5.635,5.635,0,0,0,1.656,4L38.433,423.887,0,385.454l38.433,38.433L0,462.32l38.433-38.433L111.3,496.756a5.651,5.651,0,0,0,0,7.993L90.428,525.62,111.3,504.749a5.652,5.652,0,1,0,0-7.993L38.433,423.887l34.436-34.436a5.652,5.652,0,1,0-1.656-4ZM32.78,487.187a5.652,5.652,0,1,0,5.652-5.652A5.633,5.633,0,0,0,32.78,487.187ZM0,525.62H0l34.437-34.437Z" transform="translate(942.22 1094) rotate(180)" fill="none" stroke="#00b9ff" stroke-linejoin="round" stroke-width="2"/>
    </g>
    <g transform="matrix(1, 0, 0, 1, 0, 0)" filter="url(#Union_80)">
      <path id="Union_80-2" data-name="Union 80" d="M109.646,5.65a5.634,5.634,0,0,0,1.655,4L.209,120.74,0,120.531l.209.209L0,120.948l.209-.209,36.381,36.381h0l31.972,31.972a5.651,5.651,0,1,0,3.783-1.452,5.638,5.638,0,0,0-3.783,1.452L36.589,157.121h73.057a5.651,5.651,0,1,0,5.652-5.652,5.653,5.653,0,0,0-5.652,5.652H36.589L.209,120.74,111.3,9.647a5.651,5.651,0,1,0-1.655-4ZM111.3,98.866a5.651,5.651,0,1,0,4-1.656,5.634,5.634,0,0,0-4,1.656L67.821,55.388Zm0,194.424a5.651,5.651,0,1,0,4-1.656,5.635,5.635,0,0,0-4,1.656L0,181.988ZM0,283.721l49.735-49.735ZM31.651,342.5,0,310.849Zm77.995,0h0a5.651,5.651,0,1,0,5.652-5.652A5.653,5.653,0,0,0,109.646,342.5ZM71.213,385.454a5.635,5.635,0,0,0,1.656,4L38.433,423.887,0,385.454l38.433,38.433L0,462.32l38.433-38.433L111.3,496.756a5.651,5.651,0,0,0,0,7.993L90.428,525.62,111.3,504.749a5.652,5.652,0,1,0,0-7.993L38.433,423.887l34.436-34.436a5.652,5.652,0,1,0-1.656-4ZM32.78,487.187a5.652,5.652,0,1,0,5.652-5.652A5.633,5.633,0,0,0,32.78,487.187ZM0,525.62H0l34.437-34.437Z" transform="translate(232.22 1080) rotate(180)" fill="none" stroke="#58ffb2" stroke-linejoin="round" stroke-width="2"/>
    </g>
    <g transform="matrix(1, 0, 0, 1, 0, 0)" filter="url(#Union_92)">
      <path id="Union_92-2" data-name="Union 92" d="M109.646,5.65a5.634,5.634,0,0,0,1.655,4L.209,120.74,0,120.531l.209.209L0,120.948l.209-.209,36.381,36.381h0l31.972,31.972a5.651,5.651,0,1,0,3.783-1.452,5.638,5.638,0,0,0-3.783,1.452L36.589,157.121h73.057a5.651,5.651,0,1,0,5.652-5.652,5.653,5.653,0,0,0-5.652,5.652H36.589L.209,120.74,111.3,9.647a5.651,5.651,0,1,0-1.655-4ZM111.3,98.866a5.651,5.651,0,1,0,4-1.656,5.634,5.634,0,0,0-4,1.656L67.821,55.388Zm0,194.424a5.651,5.651,0,1,0,4-1.656,5.635,5.635,0,0,0-4,1.656L0,181.988ZM0,283.721l49.735-49.735ZM31.651,342.5,0,310.849Zm77.995,0h0a5.651,5.651,0,1,0,5.652-5.652A5.653,5.653,0,0,0,109.646,342.5ZM71.213,385.454a5.635,5.635,0,0,0,1.656,4L38.433,423.887,0,385.454l38.433,38.433L0,462.32l38.433-38.433L111.3,496.756a5.651,5.651,0,0,0,0,7.993L90.428,525.62,111.3,504.749a5.652,5.652,0,1,0,0-7.993L38.433,423.887l34.436-34.436a5.652,5.652,0,1,0-1.656-4ZM32.78,487.187a5.652,5.652,0,1,0,5.652-5.652A5.633,5.633,0,0,0,32.78,487.187ZM0,525.62H0l34.437-34.437Z" transform="translate(942.22 1094) rotate(180)" fill="none" stroke="#00b9ff" stroke-linejoin="round" stroke-width="2"/>
    </g>
    <g transform="matrix(1, 0, 0, 1, 0, 0)" filter="url(#Union_10)">
      <path id="Union_10-2" data-name="Union 10" d="M109.646,5.65a5.634,5.634,0,0,0,1.655,4L.209,120.74,0,120.531l.209.209L0,120.948l.209-.209,36.381,36.381h0l31.972,31.972a5.651,5.651,0,1,0,3.783-1.452,5.638,5.638,0,0,0-3.783,1.452L36.589,157.121h73.057a5.651,5.651,0,1,0,5.652-5.652,5.653,5.653,0,0,0-5.652,5.652H36.589L.209,120.74,111.3,9.647a5.651,5.651,0,1,0-1.655-4ZM111.3,98.866a5.651,5.651,0,1,0,4-1.656,5.634,5.634,0,0,0-4,1.656L67.821,55.388Zm0,194.424a5.651,5.651,0,1,0,4-1.656,5.635,5.635,0,0,0-4,1.656L0,181.988ZM0,283.721l49.735-49.735ZM31.651,342.5,0,310.849Zm77.995,0h0a5.651,5.651,0,1,0,5.652-5.652A5.653,5.653,0,0,0,109.646,342.5ZM71.213,385.454a5.635,5.635,0,0,0,1.656,4L38.433,423.887,0,385.454l38.433,38.433L0,462.32l38.433-38.433L111.3,496.756a5.651,5.651,0,0,0,0,7.993L90.428,525.62,111.3,504.749a5.652,5.652,0,1,0,0-7.993L38.433,423.887l34.436-34.436a5.652,5.652,0,1,0-1.656-4ZM32.78,487.187a5.652,5.652,0,1,0,5.652-5.652A5.633,5.633,0,0,0,32.78,487.187ZM0,525.62H0l34.437-34.437Z" transform="translate(1918.22 1087) rotate(180)" fill="none" stroke="#f09" stroke-linejoin="round" stroke-width="2"/>
    </g>
    <g transform="matrix(1, 0, 0, 1, 0, 0)" filter="url(#Union_42)">
      <path id="Union_42-2" data-name="Union 42" d="M109.646,5.65a5.634,5.634,0,0,0,1.655,4L.209,120.74,0,120.531l.209.209L0,120.948l.209-.209,36.381,36.381h0l31.972,31.972a5.651,5.651,0,1,0,3.783-1.452,5.638,5.638,0,0,0-3.783,1.452L36.589,157.121h73.057a5.651,5.651,0,1,0,5.652-5.652,5.653,5.653,0,0,0-5.652,5.652H36.589L.209,120.74,111.3,9.647a5.651,5.651,0,1,0-1.655-4ZM111.3,98.866a5.651,5.651,0,1,0,4-1.656,5.634,5.634,0,0,0-4,1.656L67.821,55.388Zm0,194.424a5.651,5.651,0,1,0,4-1.656,5.635,5.635,0,0,0-4,1.656L0,181.988ZM0,283.721l49.735-49.735ZM31.651,342.5,0,310.849Zm77.995,0h0a5.651,5.651,0,1,0,5.652-5.652A5.653,5.653,0,0,0,109.646,342.5ZM71.213,385.454a5.635,5.635,0,0,0,1.656,4L38.433,423.887,0,385.454l38.433,38.433L0,462.32l38.433-38.433L111.3,496.756a5.651,5.651,0,0,0,0,7.993L90.428,525.62,111.3,504.749a5.652,5.652,0,1,0,0-7.993L38.433,423.887l34.436-34.436a5.652,5.652,0,1,0-1.656-4ZM32.78,487.187a5.652,5.652,0,1,0,5.652-5.652A5.633,5.633,0,0,0,32.78,487.187ZM0,525.62H0l34.437-34.437Z" transform="translate(1918.22 1087) rotate(180)" fill="none" stroke="#f09" stroke-linejoin="round" stroke-width="2"/>
    </g>
    <g transform="matrix(1, 0, 0, 1, 0, 0)" filter="url(#Union_24)">
      <path id="Union_24-2" data-name="Union 24" d="M109.646,5.65a5.634,5.634,0,0,0,1.655,4L.209,120.74,0,120.531l.209.209L0,120.948l.209-.209,36.381,36.381h0l31.972,31.972a5.651,5.651,0,1,0,3.783-1.452,5.638,5.638,0,0,0-3.783,1.452L36.589,157.121h73.057a5.651,5.651,0,1,0,5.652-5.652,5.653,5.653,0,0,0-5.652,5.652H36.589L.209,120.74,111.3,9.647a5.651,5.651,0,1,0-1.655-4ZM111.3,98.866a5.651,5.651,0,1,0,4-1.656,5.634,5.634,0,0,0-4,1.656L67.821,55.388Zm0,194.424a5.651,5.651,0,1,0,4-1.656,5.635,5.635,0,0,0-4,1.656L0,181.988ZM0,283.721l49.735-49.735ZM31.651,342.5,0,310.849Zm77.995,0h0a5.651,5.651,0,1,0,5.652-5.652A5.653,5.653,0,0,0,109.646,342.5ZM71.213,385.454a5.635,5.635,0,0,0,1.656,4L38.433,423.887,0,385.454l38.433,38.433L0,462.32l38.433-38.433L111.3,496.756a5.651,5.651,0,0,0,0,7.993L90.428,525.62,111.3,504.749a5.652,5.652,0,1,0,0-7.993L38.433,423.887l34.436-34.436a5.652,5.652,0,1,0-1.656-4ZM32.78,487.187a5.652,5.652,0,1,0,5.652-5.652A5.633,5.633,0,0,0,32.78,487.187ZM0,525.62H0l34.437-34.437Z" transform="translate(498.62 1080) rotate(180)" fill="none" stroke="#58ffb2" stroke-linejoin="round" stroke-width="2"/>
    </g>
    <g transform="matrix(1, 0, 0, 1, 0, 0)" filter="url(#Union_82)">
      <path id="Union_82-2" data-name="Union 82" d="M109.646,5.65a5.634,5.634,0,0,0,1.655,4L.209,120.74,0,120.531l.209.209L0,120.948l.209-.209,36.381,36.381h0l31.972,31.972a5.651,5.651,0,1,0,3.783-1.452,5.638,5.638,0,0,0-3.783,1.452L36.589,157.121h73.057a5.651,5.651,0,1,0,5.652-5.652,5.653,5.653,0,0,0-5.652,5.652H36.589L.209,120.74,111.3,9.647a5.651,5.651,0,1,0-1.655-4ZM111.3,98.866a5.651,5.651,0,1,0,4-1.656,5.634,5.634,0,0,0-4,1.656L67.821,55.388Zm0,194.424a5.651,5.651,0,1,0,4-1.656,5.635,5.635,0,0,0-4,1.656L0,181.988ZM0,283.721l49.735-49.735ZM31.651,342.5,0,310.849Zm77.995,0h0a5.651,5.651,0,1,0,5.652-5.652A5.653,5.653,0,0,0,109.646,342.5ZM71.213,385.454a5.635,5.635,0,0,0,1.656,4L38.433,423.887,0,385.454l38.433,38.433L0,462.32l38.433-38.433L111.3,496.756a5.651,5.651,0,0,0,0,7.993L90.428,525.62,111.3,504.749a5.652,5.652,0,1,0,0-7.993L38.433,423.887l34.436-34.436a5.652,5.652,0,1,0-1.656-4ZM32.78,487.187a5.652,5.652,0,1,0,5.652-5.652A5.633,5.633,0,0,0,32.78,487.187ZM0,525.62H0l34.437-34.437Z" transform="translate(1208.62 1094) rotate(180)" fill="none" stroke="#00b9ff" stroke-linejoin="round" stroke-width="2"/>
    </g>
    <g transform="matrix(1, 0, 0, 1, 0, 0)" filter="url(#Union_64)">
      <path id="Union_64-2" data-name="Union 64" d="M109.646,5.65a5.634,5.634,0,0,0,1.655,4L.209,120.74,0,120.531l.209.209L0,120.948l.209-.209,36.381,36.381h0l31.972,31.972a5.651,5.651,0,1,0,3.783-1.452,5.638,5.638,0,0,0-3.783,1.452L36.589,157.121h73.057a5.651,5.651,0,1,0,5.652-5.652,5.653,5.653,0,0,0-5.652,5.652H36.589L.209,120.74,111.3,9.647a5.651,5.651,0,1,0-1.655-4ZM111.3,98.866a5.651,5.651,0,1,0,4-1.656,5.634,5.634,0,0,0-4,1.656L67.821,55.388Zm0,194.424a5.651,5.651,0,1,0,4-1.656,5.635,5.635,0,0,0-4,1.656L0,181.988ZM0,283.721l49.735-49.735ZM31.651,342.5,0,310.849Zm77.995,0h0a5.651,5.651,0,1,0,5.652-5.652A5.653,5.653,0,0,0,109.646,342.5ZM71.213,385.454a5.635,5.635,0,0,0,1.656,4L38.433,423.887,0,385.454l38.433,38.433L0,462.32l38.433-38.433L111.3,496.756a5.651,5.651,0,0,0,0,7.993L90.428,525.62,111.3,504.749a5.652,5.652,0,1,0,0-7.993L38.433,423.887l34.436-34.436a5.652,5.652,0,1,0-1.656-4ZM32.78,487.187a5.652,5.652,0,1,0,5.652-5.652A5.633,5.633,0,0,0,32.78,487.187ZM0,525.62H0l34.437-34.437Z" transform="translate(498.62 1080) rotate(180)" fill="none" stroke="#58ffb2" stroke-linejoin="round" stroke-width="2"/>
    </g>
    <g transform="matrix(1, 0, 0, 1, 0, 0)" filter="url(#Union_84)">
      <path id="Union_84-2" data-name="Union 84" d="M109.646,5.65a5.634,5.634,0,0,0,1.655,4L.209,120.74,0,120.531l.209.209L0,120.948l.209-.209,36.381,36.381h0l31.972,31.972a5.651,5.651,0,1,0,3.783-1.452,5.638,5.638,0,0,0-3.783,1.452L36.589,157.121h73.057a5.651,5.651,0,1,0,5.652-5.652,5.653,5.653,0,0,0-5.652,5.652H36.589L.209,120.74,111.3,9.647a5.651,5.651,0,1,0-1.655-4ZM111.3,98.866a5.651,5.651,0,1,0,4-1.656,5.634,5.634,0,0,0-4,1.656L67.821,55.388Zm0,194.424a5.651,5.651,0,1,0,4-1.656,5.635,5.635,0,0,0-4,1.656L0,181.988ZM0,283.721l49.735-49.735ZM31.651,342.5,0,310.849Zm77.995,0h0a5.651,5.651,0,1,0,5.652-5.652A5.653,5.653,0,0,0,109.646,342.5ZM71.213,385.454a5.635,5.635,0,0,0,1.656,4L38.433,423.887,0,385.454l38.433,38.433L0,462.32l38.433-38.433L111.3,496.756a5.651,5.651,0,0,0,0,7.993L90.428,525.62,111.3,504.749a5.652,5.652,0,1,0,0-7.993L38.433,423.887l34.436-34.436a5.652,5.652,0,1,0-1.656-4ZM32.78,487.187a5.652,5.652,0,1,0,5.652-5.652A5.633,5.633,0,0,0,32.78,487.187ZM0,525.62H0l34.437-34.437Z" transform="translate(1208.62 1094) rotate(180)" fill="none" stroke="#00b9ff" stroke-linejoin="round" stroke-width="2"/>
    </g>
    <g transform="matrix(1, 0, 0, 1, 0, 0)" filter="url(#Union_34)">
      <path id="Union_34-2" data-name="Union 34" d="M109.646,5.65a5.634,5.634,0,0,0,1.655,4L.209,120.74,0,120.531l.209.209L0,120.948l.209-.209,36.381,36.381h0l31.972,31.972a5.651,5.651,0,1,0,3.783-1.452,5.638,5.638,0,0,0-3.783,1.452L36.589,157.121h73.057a5.651,5.651,0,1,0,5.652-5.652,5.653,5.653,0,0,0-5.652,5.652H36.589L.209,120.74,111.3,9.647a5.651,5.651,0,1,0-1.655-4ZM111.3,98.866a5.651,5.651,0,1,0,4-1.656,5.634,5.634,0,0,0-4,1.656L67.821,55.388Zm0,194.424a5.651,5.651,0,1,0,4-1.656,5.635,5.635,0,0,0-4,1.656L0,181.988ZM0,283.721l49.735-49.735ZM31.651,342.5,0,310.849Zm77.995,0h0a5.651,5.651,0,1,0,5.652-5.652A5.653,5.653,0,0,0,109.646,342.5ZM71.213,385.454a5.635,5.635,0,0,0,1.656,4L38.433,423.887,0,385.454l38.433,38.433L0,462.32l38.433-38.433L111.3,496.756a5.651,5.651,0,0,0,0,7.993L90.428,525.62,111.3,504.749a5.652,5.652,0,1,0,0-7.993L38.433,423.887l34.436-34.436a5.652,5.652,0,1,0-1.656-4ZM32.78,487.187a5.652,5.652,0,1,0,5.652-5.652A5.633,5.633,0,0,0,32.78,487.187ZM0,525.62H0l34.437-34.437Z" transform="translate(1652.17 1073) rotate(180)" fill="none" stroke="#f09" stroke-linejoin="round" stroke-width="2"/>
    </g>
    <g transform="matrix(1, 0, 0, 1, 0, 0)" filter="url(#Union_66)">
      <path id="Union_66-2" data-name="Union 66" d="M109.646,5.65a5.634,5.634,0,0,0,1.655,4L.209,120.74,0,120.531l.209.209L0,120.948l.209-.209,36.381,36.381h0l31.972,31.972a5.651,5.651,0,1,0,3.783-1.452,5.638,5.638,0,0,0-3.783,1.452L36.589,157.121h73.057a5.651,5.651,0,1,0,5.652-5.652,5.653,5.653,0,0,0-5.652,5.652H36.589L.209,120.74,111.3,9.647a5.651,5.651,0,1,0-1.655-4ZM111.3,98.866a5.651,5.651,0,1,0,4-1.656,5.634,5.634,0,0,0-4,1.656L67.821,55.388Zm0,194.424a5.651,5.651,0,1,0,4-1.656,5.635,5.635,0,0,0-4,1.656L0,181.988ZM0,283.721l49.735-49.735ZM31.651,342.5,0,310.849Zm77.995,0h0a5.651,5.651,0,1,0,5.652-5.652A5.653,5.653,0,0,0,109.646,342.5ZM71.213,385.454a5.635,5.635,0,0,0,1.656,4L38.433,423.887,0,385.454l38.433,38.433L0,462.32l38.433-38.433L111.3,496.756a5.651,5.651,0,0,0,0,7.993L90.428,525.62,111.3,504.749a5.652,5.652,0,1,0,0-7.993L38.433,423.887l34.436-34.436a5.652,5.652,0,1,0-1.656-4ZM32.78,487.187a5.652,5.652,0,1,0,5.652-5.652A5.633,5.633,0,0,0,32.78,487.187ZM0,525.62H0l34.437-34.437Z" transform="translate(1652.17 1073) rotate(180)" fill="none" stroke="#f09" stroke-linejoin="round" stroke-width="2"/>
    </g>
    <line id="Line_673" data-name="Line 673" y2="1080" transform="translate(601.5 0.5)" fill="none" stroke="#363a44" stroke-width="80"/>
    <line id="Line_677" data-name="Line 677" y2="1080" transform="translate(1317.5 0.5)" fill="none" stroke="#363a44" stroke-width="80"/>
    <line id="Line_674" data-name="Line 674" y2="1080" transform="translate(532.5 0.5)" fill="none" stroke="#363a44" stroke-width="20"/>
    <line id="Line_678" data-name="Line 678" y2="1080" transform="translate(1248.5 0.5)" fill="none" stroke="#363a44" stroke-width="20"/>
    <line id="Line_675" data-name="Line 675" y2="1080" transform="translate(670.5 0.5)" fill="none" stroke="#363a44" stroke-width="20"/>
    <line id="Line_676" data-name="Line 676" y2="1080" transform="translate(1386.5 0.5)" fill="none" stroke="#363a44" stroke-width="20"/>
  </g>
</svg>
