<svg xmlns="http://www.w3.org/2000/svg" viewBox="220 210 447 580"><defs><clipPath id="a"><path d="M0 0h888v1000H0z"/></clipPath></defs><g clip-path="url(#a)"><path d="M225 680.5v-399a39 39 0 0 1 39-39h360a39 39 0 0 1 39 39v399l-219 107z" fill="#a72454"/><g transform="translate(225 212.5)"><g fill="#ff3680"><path d="M219 519.958 22.5 423.95V39c0-9.099 7.402-16.5 16.5-16.5h360c9.098 0 16.5 7.401 16.5 16.5V423.95L219 519.958z"/><path d="m219 494.916 174-85.014V44.999H45v364.903l174 85.014M219 545 0 438V39C0 17.46 17.46 0 39 0h360c21.538 0 39 17.46 39 39v398.999L219 545z" fill="#c62b64"/></g><rect width="291" height="56" rx="2" transform="translate(74 337)" fill="#292c32"/><text transform="translate(220 378)" fill="#ff3680" font-size="41" font-family="Bahnschrift" font-weight="700"><tspan x="-124.091" y="0">~</tspan><tspan y="0" text-decoration="underline">SFX/MUSIC</tspan><tspan y="0">~</tspan></text><text transform="translate(220 323)" fill="#292c32" font-size="43" font-family="Bahnschrift" font-weight="600"><tspan x="-27.137" y="0">My</tspan><tspan x="-49.519" y="111">Work</tspan></text><path d="M104.981 267.28h230.328" fill="none" stroke="#292c32" stroke-linecap="round" stroke-width="15"/><rect width="192" height="158" rx="33" transform="translate(124 72)" fill="#292c32"/><path d="M108.36 154.512h41.561l13.8 13.057 14.615-32.863 18.108 56.674 24.11-80.795 22.731 80.795 16.319-56.674 13.84 32.863 13.353-13.057h57.394" fill="none" stroke="#ff3680" stroke-linecap="round" stroke-width="10"/></g></g></svg>